<svg xmlns="http://www.w3.org/2000/svg" xmlns:xlink="http://www.w3.org/1999/xlink" preserveAspectRatio="xMidYMid meet" version="1.0" viewBox="0.0 -0.5 400.5 261.5" zoomAndPan="magnify" style="fill: rgb(239, 180, 157);" width="401px" height="262px"><g id="__id23_sfavegup1"><path d="M189.4,152.57h-7.69c-2.21,0-4.22-0.91-5.68-2.37l-0.23-0.22c-1.32-1.43-2.14-3.35-2.14-5.46c0-2.91-2.36-5.28-5.28-5.28 c-2.92,0-5.28,2.36-5.28,5.28c0,4.93,1.96,9.44,5.14,12.79l0.33,0.36c3.05,3.05,7.16,5.04,11.71,5.39v5.97 c0,2.91,2.36,5.28,5.28,5.28c2.92,0,5.28-2.36,5.28-5.28v-5.97c4.55-0.35,8.66-2.34,11.71-5.39v-0.02 c3.37-3.37,5.46-8.02,5.46-13.13c0-5.11-2.1-9.76-5.46-13.13l-0.02-0.02c-3.37-3.37-8.02-5.46-13.13-5.46h-7.69 c-2.21,0-4.22-0.91-5.68-2.37l-0.23-0.22c-1.32-1.43-2.14-3.35-2.14-5.46c0-2.22,0.9-4.23,2.35-5.68h0.02 c1.46-1.46,3.47-2.37,5.68-2.37h7.69c2.22,0,4.23,0.91,5.69,2.36c1.45,1.46,2.36,3.48,2.36,5.69c0,2.91,2.36,5.28,5.28,5.28 s5.28-2.36,5.28-5.28c0-5.11-2.1-9.76-5.46-13.13l-0.02-0.02c-3.05-3.05-7.15-5.03-11.69-5.39v-5.97c0-2.92-2.36-5.28-5.28-5.28 c-2.92,0-5.28,2.36-5.28,5.28v5.97c-4.55,0.35-8.66,2.34-11.7,5.4c-3.38,3.38-5.48,8.03-5.48,13.13c0,4.93,1.96,9.44,5.14,12.79 l0.33,0.36c3.37,3.37,8.03,5.46,13.15,5.46h7.69v0c2.22,0,4.23,0.91,5.69,2.36c1.45,1.46,2.36,3.48,2.36,5.69 c0,2.22-0.91,4.23-2.37,5.68C193.62,151.66,191.61,152.57,189.4,152.57z" style="fill: inherit;"></path><path d="M185.56,198.14c18.49,0,35.23-7.5,47.34-19.61c12.12-12.11,19.61-28.85,19.61-47.34c0-18.49-7.5-35.23-19.61-47.34 c-12.11-12.12-28.85-19.61-47.34-19.61c-18.49,0-35.23,7.5-47.34,19.61c-12.12,12.12-19.61,28.86-19.61,47.34 c0,18.49,7.5,35.23,19.61,47.34C150.33,190.65,167.07,198.14,185.56,198.14z M146.68,92.31c9.95-9.95,23.7-16.1,38.88-16.1 c15.18,0,28.93,6.16,38.88,16.1c9.95,9.95,16.1,23.7,16.1,38.88c0,15.18-6.16,28.93-16.1,38.88c-9.95,9.95-23.7,16.1-38.88,16.1 c-15.18,0-28.93-6.16-38.88-16.1c-9.95-9.95-16.1-23.7-16.1-38.88C130.57,116.01,136.73,102.26,146.68,92.31z" style="fill: inherit;"></path><path d="M399.88,180.63l-28.76-139.2V41.4c0-0.85-0.18-1.66-0.5-2.39l-7.08-34.24c-0.66-3.23-3.81-5.31-7.03-4.65l-170.84,35.3 H5.98h0C2.68,35.42,0,38.1,0,41.4v179.58c0,3.3,2.68,5.98,5.98,5.98h24.55l5.94,28.73c0.66,3.23,3.81,5.31,7.03,4.65l161.54-33.38 h160.09c3.3,0,5.98-2.68,5.98-5.98v-28.33l24.11-4.98C398.45,187.01,400.54,183.86,399.88,180.63z M353.07,13.01l4.63,22.41H244.6 L353.07,13.01z M46.95,247.45l-4.23-20.49h103.4L46.95,247.45z M359.15,215H11.97V47.39h347.18V215z M371.12,180.47v-80.11 l15.87,76.83L371.12,180.47z" style="fill: inherit;"></path><path d="M36.74,104.91c3.3,0,5.98-2.68,5.98-5.98h0V76.51h22.42c3.3,0,5.98-2.68,5.98-5.98s-2.68-5.98-5.98-5.98h-28.4 c-3.3,0-5.98,2.68-5.98,5.98v28.4C30.75,102.23,33.43,104.91,36.74,104.91z" style="fill: inherit;"></path><path d="M65.14,185.87H42.72v-22.42c0-3.3-2.68-5.98-5.98-5.98s-5.98,2.68-5.98,5.98h0v28.4c0,3.3,2.68,5.98,5.98,5.98h28.4 c3.3,0,5.98-2.68,5.98-5.98C71.12,188.55,68.44,185.87,65.14,185.87z" style="fill: inherit;"></path><path d="M305.97,76.51h22.42v22.42c0,3.3,2.68,5.98,5.98,5.98c3.3,0,5.98-2.68,5.98-5.98v-28.4c0-3.3-2.68-5.98-5.98-5.98h-28.4 c-3.3,0-5.98,2.68-5.98,5.98S302.67,76.51,305.97,76.51z" style="fill: inherit;"></path><path d="M305.97,197.84h28.4c3.3,0,5.98-2.68,5.98-5.98v-28.4c0-3.3-2.68-5.98-5.98-5.98c-3.3,0-5.98,2.68-5.98,5.98v22.42h-22.42 c-3.3,0-5.98,2.68-5.98,5.98C299.99,195.16,302.67,197.84,305.97,197.84z" style="fill: inherit;"></path></g></svg>