<svg xmlns="http://www.w3.org/2000/svg" xmlns:xlink="http://www.w3.org/1999/xlink" preserveAspectRatio="xMidYMid meet" version="1.0" viewBox="12.4 1.6 136.0 424.4" zoomAndPan="magnify" style="fill: rgb(0, 0, 0);" width="136px" height="424px"><g data-name="1"><g id="__id8_sfavegup1"><path d="M22.39,4.9l89.76-.62,26.38,1.83a7.28,7.28,0,0,1,7,7v95.71a4.6,4.6,0,0,1-4.75,4.43h-2.36V209.7l3.55,4.59a5,5,0,0,1,1.07,3.07v98.69a2.4,2.4,0,0,1-2.48,2.32h0v87.9a8.52,8.52,0,0,1-1.82,5.23l-6.82,8.83a7.77,7.77,0,0,1-6.43,2.92l-101-3.95A5.51,5.51,0,0,1,19,414.13l-2.61-90.94a7.38,7.38,0,0,1,1.8-5l6.28-7.4-4.26-7.29V218.31h-.8a4,4,0,0,1-4.17-3.89V115.6l8.52-7.95-4.09-4.42A9.82,9.82,0,0,1,17,96.57V10A5.26,5.26,0,0,1,22.39,4.9Z" style="fill: rgb(255, 189, 89);"></path></g><g id="__id9_sfavegup1"><path d="M132.57,221.46,20.19,218.34v0h-.8a4,4,0,0,1-4.17-3.89V115.6l8.52-7.95L31,114.11l107.4-.83v96.41Z" style="fill: rgb(108, 174, 229);"></path></g><g id="__id10_sfavegup1"><path d="M131.92,420.33l6.82-8.83a8.52,8.52,0,0,0,1.82-5.23v-87.9L31,325.83l-8.1-13.11-4.75,5.43a7.38,7.38,0,0,0-1.8,5L19,414.13a5.51,5.51,0,0,0,5.46,5.17l101.05,3.95A7.77,7.77,0,0,0,131.92,420.33Z" style="fill: rgb(252, 157, 153);"></path></g><g id="__id11_sfavegup1"><path d="M53.2,19.24l71.24.39c5.38,0,9.72,4.11,9.72,9.13l.91,65.79c0,5-4.38,9.12-9.78,9.12l-72.15.75c-5.4,0-9.78-4.09-9.78-9.13V28.37C43.36,23.31,47.77,19.21,53.2,19.24ZM28.89,136.18v62.21c0,4.91,4.19,8.93,9.45,9.07l69.43,1.81c5.44.15,9.94-3.89,10-9l.83-63.5c.07-5-4.26-9.15-9.65-9.19l-70.26-.51C33.29,127.07,28.89,131.14,28.89,136.18Zm11.54,104.5,1.14,61.42c.06,6,5.56,10.77,12,10.34L119.74,308c5.83-.39,10.36-4.91,10.38-10.38l.27-58.37c0-6-5.41-10.83-11.87-10.47L51,230.16C45,230.49,40.38,235.12,40.43,240.68ZM29.91,342.47l1.55,57.95c.15,5.74,5.07,10.38,11.22,10.57l61.59,1.93c6.55.21,12-4.68,12-10.79l.26-57c0-5.8-4.84-10.59-11.05-10.87l-63.39-2.9C35.35,331.06,29.74,336.17,29.91,342.47Z" style="fill: rgb(246, 231, 202);"></path></g><g id="__id12_sfavegup1"><path d="M62.18,27a2.45,2.45,0,0,1-2.43,2.58A6.6,6.6,0,0,0,54.16,33a11,11,0,0,0-1.06,4.27c-.12,1.25-.21,2.49-.31,3.74l-.12,1.63A2.53,2.53,0,0,1,50.17,45a2.64,2.64,0,0,1-1.87-.84,2.31,2.31,0,0,1-.63-1.74c0-.59.09-1.18.13-1.78.11-1.51.22-3.07.41-4.6a14.77,14.77,0,0,1,1.86-6,11.74,11.74,0,0,1,9.65-5.45A2.36,2.36,0,0,1,62.18,27ZM55.77,304.05h0a6.47,6.47,0,0,1-4.39-2.77,6.33,6.33,0,0,1-.51-5.77,2.26,2.26,0,0,0-.13-1.83,2.58,2.58,0,0,0-1.59-1.33,2.54,2.54,0,0,0-3,1.66,11.2,11.2,0,0,0,1.12,10,11.56,11.56,0,0,0,8.32,5l.24,0a2.2,2.2,0,0,0,1.48-.6,2.59,2.59,0,0,0,.89-1.91A2.53,2.53,0,0,0,55.77,304.05Zm38-218.17-1.45.05-1.52.16-1,0-.65-.1-2.29.16L86.1,86l-1.51.15-1.52-.1-.71,0-.71,0-.88.2h-.93l-.66-.11-1.34,0-.83.16-.9-.08-2.41.09-.89-.4-1.63-.58-.64-.65-.71-.61-.56-.75-.22-.83-.3-.78L68.57,81l0-.94.12-.87.36-.71.23-.77.71-.87,1.26-1L72.68,75l.9-.15,0-.58-.06-.71,0-.67-.11-.72.12-1.44-.14-1.42,0-2.2.09-.62-.11-.66,0-.82,0-.74.12-.63L73.42,63l.1-2.22-.08-1.39.15-1.45-.1-1.36.11-1.47-.07-1.3L73.44,53l.15-.74,0-.53-.14-.84.15-.73-.07-.65.06-.68-.11-.68h0L72.67,48l-.75-.42-.83-.33-.85-.79-.51-.72L69,44.12l-.14-.71-.08-.75-.19-.84.21-1.08.82-1.33.39-.82.78-.51.59-.54L73,36.87l1.54-.37,1,0,.62.1.72-.06.84.09,1.35,0,.76,0,.86-.05.71.19.63-.08,1.47.06.79-.09.85.12,2.07.14.7-.09.8,0,.78,0,1.37.16.76-.16,1.49.18.77-.1.78.16.69,0,.72.1.79,0,.7.17.73,0,1,.27.51.24.74.11.68.35.83.15.7.54.65.31.56.34.78.34.6.58.67.49.45.46.62.5.62.63.31.64.5.52.67,1.48.23.64.39.87.1.63.21.76.08.69,0,.71.14.82-.18.83,0,1.55-.36.73-.1.68-.3,1-.33.53-.31.82-.9,1.38-.44.46-.52.78-1.34,1.16.28.15.53.38,1.41.64,1.1,1.13.71.61.42.58.42.68.35.69.43.68.32,1.38.35.73.13,1.62,0,1.39.1.76L111.83,74l-.38,1.34-.21.86-.3.64-.77,1.4-1.42,2-.49.4-.54.64-.57.46-1.24.81-.58.55-.79.36-.59.34-.83.4-.6.21-.68.42L101,85l-.79.34-.85,0-.75.22L97,85.86l-.84-.07-1.51.15ZM89.57,72.51l-.09.61.06.36.37.07.66-.13.84,0h.65l1.34,0,.79-.17.54,0,.3-.17.73-.83.48-1.7-.1-1.19-.08-.6-.36-1-.4-.27-.52-.29-.54-.19-.67,0H93l-.79.13-.79-.07-.72,0-1.26-.08.07.45L89.39,69l.14,1.4ZM94.5,52l-.07-.43-.31-1-.52-.73-1-.34L92,49.31l-1.25,0-.78.13-.53-.06,0,.45,0,.73,0,.7.11.74-.11,1.47.11,1.13h.64l.62.08.77-.11.71.11.68-.14.47,0,.22-.14.59-.78Zm42.19-4.71-.13.48.11.6-.06.72.09.66,0,1.51,0,.76-.16.62.15.7-.16.61.27.68-.16.8.13.7-.15.74.07.68-.12.82,0,1.2.07.56.2.76v1.06l-.26.55.14.52.09.82-.25,2.06.13.65v.81l0,.69-.08,1-.11.42.24.71-.23.77.2,1.21.06.85-.1,1.06-.16.44.26,1.23-.1,1.67-.08.48.2.71L136.52,80l0,.49.27,1-.38.79,0,.49,0,.76.12,1.21.24,1-.38.79,0,.35.19.73.13.93-.22.72.08.68-.17.68.12.71-.17.67.15.6-.05,1.12-.12.37.22.65-.16,1.09-.32.62-.08.82-.54.67-.31.76-.86,1.11-.85,1.37-.73.42-.36.41-.55.72-.77.37-.63.54L129,104l-.64.54-.92.09-.77.32-.85,0-.77.16-.89,0-.81-.18-.46,0-.71.26-1,0-1.27-.13-.7.19-.89.12-.82-.11-.87,0-.5-.09-.66.21-1.09-.06-.49-.1-.79.21h-.74l-.94,0-.57-.11-.7.13-.64-.07-.78.32-1.68-.28h-.68l-.71.07h-.69l-.74.15h-.85l-.78,0-.57-.07-.83.33-1-.31h-.59l-.51,0-.83.31-.85-.09-.88.13-.65-.23-.69.24-.8-.19-.72.18-.69-.14-.73.28-1.63-.3-.65.08h-.81l-1.51.06-.61-.06-.82.21-.75,0-.66,0-.74.2-.9,0-.8,0-.7-.14-.67.08-.65,0-.81.27L78,106.09l-.72.18-.72-.09-.83.22-1.59,0-1.35-.24-.69.18-.89.11-.8-.13-.58,0-1.55.25-.94,0-.65-.09-.75,0-.61-.09-.74.22-.82.08-1-.06-.49-.11-.81.26-.75-.27-.71.23-.8-.22-.67.15-.84,0-.68-.07-.72.14-1,.07-.73-.25-.65.09h-.82L51,106.56l-.84.13-1.09-.31-.63-.29-.84-.29-.55-.48-.8-.28-.82-.59L45,104l-.67-.61-.31-.44-.65-.49-.6-.7-.23-.73-.44-.67-.45-1.13L41,98.46l0-.94-.2-.71.07-1.4-.24-.75.15-.79-.09-.73.17-.66-.13-.71L41,91v-.33l-.36-.75.15-1.1.12-.47-.12-.59-.09-.94.28-.69L40.86,85l-.22-.92.29-.74,0-.35-.29-.94.32-.88,0-.4-.2-.76.14-.64-.22-.58,0-1.06.22-.56-.23-.69.32-.84,0-.49,0-.6-.21-.76L40.66,73l.13-.67-.07-.6,0-1,.13-.46-.14-.66.15-.72-.07-.46-.24-.83.1-.82,0-.7.08-.62-.15-.86.36-.79v-.93l-.35-.77.26-1.56-.12-.67.11-.6-.33-.83.36-.75-.13-.54-.08-1.6.2-.62-.12-.6L40.87,53l-.29-.8.2-.77-.13-.63.21-1.4-.19-.68.14-.86.07-1.16L40.62,46l.15-.83-.05-.67.07-.61L40.56,43l.27-.62-.25-.58.33-2-.37-.8.33-1,.05-.52,0-.49-.26-.79.16-1.06.13-.45-.15-.62.09-.8,0-.75.12-.63-.13-.68.12-.67-.13-.5-.16-.89.05-1,.29-.7L41,27l-.14-1,.41-.67,0-.86.6-.62,0-.54.49-1,.45-.57.46-.69,1.15-1.2.81-.32.59-.44.46-.25.6-.74.91-.14.56-.44,1.79-.4L51.63,17l.78-.17.68.08.83-.28.76.2.74-.23.94.23,1.22.08.88-.26.8.27.59-.11h.85l1.58-.08.78.19h.63l.66,0,.8-.12.78.06,1.55-.1.67.11.85-.19.88.34.42,0,.77-.23.83.07.75-.09.79.06.87,0,.61.2.75-.25.81.27L77,17l.82-.09.91,0,.76.12h.72l.59.07.72-.26,1,.06.63.1.81-.07.69.2.62-.12,2.31.13L88.4,17l.84.11,1.3,0,.82-.12h.75l.76-.07.69.08.79-.16.88.17.63,0,.81-.05.64.12L98,17l.94-.12.79.2.61,0,.83-.11.83.18h.52l.9-.23.73.25.75-.24.79.27.72-.17.73.21.73-.2.84.19,2.13-.13,1.08.05.51.15.68-.14.8.11.64-.07.86-.16.83.17H117l.61.09.84-.26.72.24.79-.31.83.33.65-.13.88,0,.77.18h.64l.69.05.81-.2.84.18H127l.61.39.77-.08.85.49.86.35.49.35.8.33.56.66.37.27,1,.38.35.73.64.36.92,1.56,1.08,2.66.26.83,0,.74.15.69,0,.61.24.67v1l-.21,1.3.13.7-.09.67.18.73-.15.84-.09,1.87.22.77-.27,1.49.06.46.26.9-.19.72.14.58v1l-.21.5.22.57-.11.89v.64l-.05.6.22.75Zm-5.18-7.2.08-1,.11-.43-.24-.72.23-.77-.2-1.21-.06-.85.1-1.06.16-.45-.26-1.24.1-1.67.08-.49-.2-.72.22-1.41-.08-.4-.44-.77.07-.77-.52-.91-.38-.44-.42-.38-.8-.48-.36-.68-.29-.16-1.63-.49-.45-.29-.74-.11-.52-.18-.7.06-.69-.15-.64.14-1.08,0-.45-.1-.63.24-1,0-.67-.14-.78.15-.79-.22-.67.07-1.49-.16-1.56.2-.76-.2-.5.06-.87.21-.79-.11-.77.13-1.4-.26-.75.27-.84-.16-.77.14-.77-.18-.69.09-.88,0-.81-.21-.47-.05-.72.23-1-.06-1.27-.17-.7.16-.89.1L97.4,22l-.88,0-.5-.12-.67.19-1.09-.09-.48-.12-.65.2-1.84-.08-.57-.13-.7.1-.64-.08-.79.29-1.67-.34-.68,0-.71,0-.68,0-.75.13-.86,0-.78,0-.59-.1-.84.31-1-.34-.59,0-.52,0-.84.28-.86-.11-.87.1-.65-.26-.7.23-.8-.22-.73.16-.69-.16-.74.25-1.64-.35-.66.06-.82,0-.68,0-.9,0-.56-.06-.69.18h-.88l-.67-.06-.75.18-1.8-.1-.6-.14-.68.06-.66-.05-.83.24-1.53-.33-.74.16-.72-.11-.69.19-.91,0-.84,0-1-.24h-.38l-1.07.19-.65.46-1.21.46-.68.44-.38.14-.34.46-.57.57-.44.33-.63.86-.09.53-.28.88-.23.39,0,.43-.09.71v.43l.33.8-.18.85.07.66-.17,1.27.24.73L46,34l.09.73-.17.66.13.71-.23.8v.33l.36.75L46,39l-.11.47.12.59.09.94-.28.7.08,1.09.22.92-.3.74,0,.35.3.95-.32.88,0,.4.19.76-.13.64.21.58,0,1.06-.21.55.23.69-.32.83,0,.48,0,.61L46,54l0,.83-.12.67.07.61,0,1-.13.46.14.66-.16.72.07.45.24.83L46,61.1l0,.69-.07.63.15.86-.37.78V65l.36.77-.27,1.56L46,68l-.11.6.33.83-.36.76.12.53.09,1.6-.2.62.11.6-.12,1.29.29.8-.2.77.14.63-.21,1.4.18.68-.13.86-.07,1.16.25.76-.14.82,0,.67-.07.6.23.85-.28.63.25.57-.33,2,.37.81-.32,1-.05.53,0,.49.25.79-.15,1.06-.13.45.15.63-.09.8,0,.73-.09.57.21.72,0,.46.75,1.09.4.81.15.5.23.24.76.38.37.52.72.18.46.51.54,0,1.39.36,1.34.09.85,0,.77.24.58,0,.61,0,.85-.34.81.24.65-.19.93.09h.65l1.43.07.8-.12.64.07.8-.3.76.18.73-.26.95.21,1.21,0,.87-.29.81.24.68-.14,1.47,0,.85-.09.79.16,1.28-.05.79-.15.79,0,1.53-.16.66.1.85-.22.88.31h.42l.76-.25.83,0,.75-.11.79,0,.86-.06.61.18.74-.27.82.24.5-.11.81-.11.91-.07.76.1.72,0,.58,0,.71-.28,1,0,.63.08.81-.1.71.18.73-.14h.74l1.46.05.78-.08.85.08h1.31l.81-.14.75,0,.76-.09.69,0,.78-.18.89.13.62,0,.81-.08.65.1.66-.2.93-.15.8.17.61,0,.82-.14.83.16H112l.9-.26.73.22.74-.26.8.24.72-.19.73.18.73-.22.84.17,2.13-.2.95,0,.67.16.67-.15.81.07.59-.07.85-.2.77,0,1.16-.23.59-.5.65-.11.41-.59.77-.22.28-.41.6-.69.45-.37L131,96l0-.66.25-.64,0-.74.23-.5-.27-.59.18-.89,0-.69.11-.65-.12-.77.23-.77v-.36l-.34-.89.25-.7-.23-.59.13-1,0-.61.17-2-.11-1.51.14-.68-.06-.64.05-.58-.23-.65v-1l.21-1.31-.13-.69.09-.67-.19-.73.16-.84.09-1.85-.22-.78.27-1.49-.06-.46-.26-.9.19-.73-.14-.57v-1l.21-.5-.22-.57.11-.88v-.64l.05-.6-.22-.74.19-1,.13-.47-.11-.6.06-.72-.09-.67,0-1.52,0-.76.16-.62-.15-.7.16-.62-.27-.67.16-.8-.13-.71.15-.74-.08-.68.13-.82,0-1.22-.07-.56-.2-.77V46.17l.27-.55-.14-.53-.09-.82.25-2.06-.13-.65v-.77ZM109.17,281.22,109,282l0,.77-.26.76-.14.87-.51,1.21-.15.81-.47.7-.32.73-.58.62-.92,1.27-1,.94-.57.67-.67.52-1.16.73-.64.55-.85.34-.48.25-.68.56-.88.21-.6.27-.76.42-.93.09-.63.16-.84.34-.83,0-.8.26-.87.13-.83,0-.64.05-.8.2-.87.12h-.66l-.8.13-1.33.06-.81.2L85,297l-1.4.07-.82.22-.8.06-.7,0-.62.11-.73.06-.81.23-.84-.09-1.27.14-.81.2-.73,0-.7.19h-.88l-.7,0-.65.08-.83,0L69.92,298l-.94-.26-.9-.48-.56-.49-.68-.72-.35-.73-.47-.7-.4-1.71-.08-.93.28-.8.09-.79.56-1,1-1.24.57-.48,1-.63.68-.22.79-.34,0-.55-.09-2.76,0-.86.09-.58-.07-.73.14-.67-.09-.65v-1.38l-.1-.76.17-1.39-.06-.7.06-.79v-.61l0-.69-.14-2.2.12-.62-.14-.66.14-1.4-.1-.69,0-.78.13-1.37-.15-1.4.05-.72-.05-.72.08-.66-.12-.74.14-.69-.13-.67.08-.51-.07,0-.91-.27-.71-.5-.79-.41-.78-.6-.41-.77-.58-.77-.34-.93-.09-.65-.23-.81.07-1,.33-1.67.55-.61.28-.7.78-.78.72-.35.63-.52,1.15-.33.68,0,.76-.15h.85l.71.07.76-.09h.74l4.48.14,1.41,0,.74-.12.77.06,1.46-.07,1.46,0,.75,0,.76-.08.71.07.72-.1.84,0,.63.09.73-.18.82.14,1.41-.09,3.92.33,1.33.42.82.18,1.62.69,1.14.74.85.32.63.65.52.41.78.48.43.72.52.48.6.73.81,1.43.12.74.36.75.15.7.24,1.43.21.89v.81l-.13.66.09.75-.22.88-.13.79-.29.84-.28.53-.17.74-.85,1.39-1,1.35-.61.63-.49.4-.54.66-.18.1.15.07.64.35.77.35,1.12.83.8.47.45.75.47.53.95,1.43.16.56.4.78.13.58.3.77.16.85-.11.68.15.64-.08.73Zm-16-.39.08-.64L93,278.47l-.26-.28-.41-.37-.38-.21-.5,0h-.66l-.77.1-.72,0-.74.15-.74-.05-.74.13h-.44V279l0,.86-.08.57.07.73-.15.67.09.64,0,.7v.67l0,.37.37-.05.72,0,3.39-.35.5-.21.45-.32.42-.42.34-.44.46-1ZM86.6,263.48l0,.88-.08.61,0,.37,1.15-.07.83-.13.8.09.48-.05.42-.18.37-.28.35-.4.27-.4.34-1-.06-.52,0-.57-.15-.41-.42-.92-.82-.43-.43-.15-2,.14L87,260l-.44.07,0,.51ZM115.34,93.93h0a69.35,69.35,0,0,1-19.49.53,2.13,2.13,0,0,0-1.71.57,2.59,2.59,0,0,0-.9,1.91,2.51,2.51,0,0,0,2.38,2.5,70.39,70.39,0,0,0,8.09.46,74.6,74.6,0,0,0,12.77-1.11,2.23,2.23,0,0,0,1.87-2.68A2.59,2.59,0,0,0,115.34,93.93ZM123,253.09a2.36,2.36,0,0,0-1.2,2.1c0,7.69-.24,15.49-.63,23.18a2.32,2.32,0,0,0,2.29,2.49h.14a2.49,2.49,0,0,0,2.57-2.39c.39-7.72.6-15.55.63-23.27a2.34,2.34,0,0,0-1.16-2.1A2.67,2.67,0,0,0,123,253.09ZM48.78,187.82l0-1.54.14-.86.31-.95.45-.66,1.05-1.21.66-.37.6-.55.35-.12.07-.26.26-.66L53,180l.19-.6.15-.61.11-.75.52-1.55.31-.53.14-.45.07-.81.24-.81.27-.6.4-1.23.21-.86.25-.52L56,170l.64-2.09.51-1.22.14-.71.4-1.31.2-.83.26-.57.4-1.4.27-.65.17-.53.22-.9.27-.53.12-.51.15-.91L60.4,156l.16-.83.23-.58.17-.76.39-.66.32-1.18.21-.91.26-.51.33-1.5.26-.53.17-.79.51-.66.37-.77.75-.54.59-.54.72-.48.79-.38.88-.26,1.63-.17.72.07.76-.11,1.56.14,2.19-.07.77.05,1.58-.19.8.23.9.06,1.58.52.64.53.7.4.57.67.45.64.49.86.61,2,.33.74.22.83.07.58.27.69.53,1.91.36.79.31,1.28.3.66.7,2.15.12.62.53,1.55,0,.5.33.61.09.74.32.74.11.59.3.69.52,2,.35.86.08.54.34.66.09.76.25.66.19.68.54,1.4.12.65.39,1.33.27.75.12.62.5,1.44.09.55.34.65.11.74.23.54.31.93.14.83,1,.45.92.52,1.52,2.22.47,1.53,0,.89,0,.84-.41,1.12-1.4,2.11-.73.63-.82.29-.73.49-1,.17-.82.06h-.87l-.74-.1-1.32,0-.8.15-.78-.13-.69.07L84,193.05l-.76.15-.81-.08-.77,0L80.9,193h-.65l-1.79-.08-2.39-1.25-1.57-2.13-.21-.87-.27-.74,0-.95.1-.75.4-1.68.61-.67.37-.5.62-.72,1.54-.86-.19-.69,0-.72-.16-.52-.22-1-.07-.56-1.49.09-.73-.11-.75.13-.85-.11h-.7l-.7,0-.84,0-.76,0-.73-.08-.7.07-.31,1.28-.07.91-.19.58,0,.62h0l.89.51,1.11,1.06.53.67.86,1.42v1l.08.73-.25,1.61-.25.86-.52.68-.44.69-.68.57-.88.58-.63.23-.79.42-.9.06-.79.15-1.7-.06-.58-.09-.76.14-.74-.14-.69.13-3-.19-.75,0-.76-.07-.63,0-.88.12-2.39-.53-1-.32-.67-.54-.77-.48-1-1.56-.35-1Zm23.63-25.75-.18.94-.21.62-.29,1.28-.13.89-.2.55-.06.7-.13.6.22,0,.67-.07h.77l1.43-.07.32,0-.39-1.35,0-.56-.26-.82,0-.63-.32-1.48-.12-1.27-.52-1.88-.2.75-.26.57-.1.47Zm-38.73,32a2.54,2.54,0,0,1,1.74-2.87,2.5,2.5,0,0,1,2.06.3,2.23,2.23,0,0,1,1.08,1.55,16,16,0,0,1,.14,2.25v.15c0,.21,0,.41,0,.62l0,.12c0,.1.05.21.08.32a5.62,5.62,0,0,0,.19.58l.06.13.14.28c.12.21.25.4.38.59l.25.28a5.56,5.56,0,0,0,.5.47l0,0,.3.19a4.32,4.32,0,0,0,.56.3l.13,0,.35.11a4.54,4.54,0,0,0,.53.12h0l.17,0,.4,0a5.62,5.62,0,0,0,.71,0l.41-.09a2.54,2.54,0,0,1,3,1.71,2.45,2.45,0,0,1-.21,1.92,2.49,2.49,0,0,1-1.55,1.21,9.45,9.45,0,0,1-2.24.26,9.26,9.26,0,0,1-6.48-2.59,9.44,9.44,0,0,1-2.36-3.83,9.2,9.2,0,0,1-.41-2.17,8.68,8.68,0,0,1,0-1v-.17c0-.2,0-.33,0-.45a2.81,2.81,0,0,0,0-.29S33.68,194.11,33.68,194.09Zm6.09,5.58Zm60.85-62.6a11.43,11.43,0,0,1,3.88.67,7,7,0,0,1,2.86,1.7,1.54,1.54,0,0,1,.28.4c.06.1.12.21.2.37l0,.06a4.87,4.87,0,0,1,.23.74l.09.4a2.33,2.33,0,0,0,0,.28,19.35,19.35,0,0,1,0,3.65,2.38,2.38,0,0,0,.66,1.75,2.5,2.5,0,0,0,4.34-1.63c.2-3.39.06-6.89-2.29-9.49a11.56,11.56,0,0,0-4.8-2.93,16.09,16.09,0,0,0-5.54-1h0a2.47,2.47,0,0,0-1.76.74,2.49,2.49,0,0,0,1.76,4.26Zm47.75-28.17-.39.88,0,.7-.26,1-.36.64-.56.85-.6.4-.34.62-.88.73-1.65.53-.8.3-.93.2-.64-.1.2.49-.28.77.14.52.15.94-.27.8,0,1.12.15.73.08.88-.18.67.09.58v1.54l-.09.59.2.76-.18.64.3.78-.29.63.38.7-.35.77.25.67-.27.73.2.58-.12.84.13,1.52-.22.51.3.61-.18.83.16.71-.38,1.43.39,1.28-.21,1.16-.12.31.32.71-.37.85.07.58-.08.49.48.8-.39,1,0,.53-.09.72V147l0,.55.25.72.13.94-.28.81,0,.51.13,2v.68l.11.76-.11.73.06.64-.08,1-.17.51,0,.37.28.82-.12.74.21.82-.34.78,0,.52,0,.6.19.73.07.76-.08,1-.14.44.16.67-.17.66.25.78-.27.64.2.46.11,1.13-.35.74v.48l0,.71-.05.7,0,.53.17.73.11.87-.17.77v.43l.27.86-.32.95-.08.43.16.7-.17.83,0,1.07.37.81-.22.92v.64l-.09.7v.69l-.06.55.21.65,0,1-.07.52.13.72v.82l-.15.65.06.52,0,.84-.06.67.07.65,0,1-.12.47.34,1.28-.22,3.69-.09.53.24.71-.15.81.07.55,0,.89-.13.72v.42l.31.79-.38,1.55,0,.36.41,1-.37.81.07.39.25,1.67-.16.41,0,0,.7.56.33.74.92,1,.48.67.25.45.57.46.58,1,.22.83.05.45.55.77-.11.48.17.79-.2.68.21.39-.28.84.11.43.16,1-.24.8v.41l.25.86-.3.93-.09.55v.55l.09.52.28.8,0,1-.09.55.11.66-.08,1-.3.71,0,.23.44.79-.23.85.17.72-.24.8,0,.43.24.93-.3.71.12.55.08,1.44,0,1.71-.22,1,.46.79-.31.94,0,.45.13.81v1.6l-.18.51.27.66-.21.81.13.7-.18.66.2.73-.29.86,0,.42.16.77,0,.79-.1.62.14.75-.31,1.36.07.42.36.85-.36,3,.15.73-.2.76,0,.36.32.72,0,1.13-.23.49.25.55-.19,1.21-.21.54v.3l.31.65.08.94,0,1-.26.5.27.66-.28.65.35.66-.28.77.21.53-.06,1.83-.16.62-.07.74-.09.44.14.46.26,1.11-.25.56.28.52-.14,1.29-.13.31.3.69-.36,1-.06.44.22,1.54-.19.5.42.75-.48,1,0,.36.32,1.4-.18,1.45.13.62.1.85-.25,1.4,0,.74-.15.61.14.58.29,1.65-.37.79v.27l.43.94-.37.75.19.56-.16.87.08,1.44-.23.68.1,1.32-.07.72V304l.34.87-.31.93,0,.49.07.72-.06.47.45.79-.3,1-.09,1.28v.7l-.06.65.15,1.45-.14.72,0,.48.22.85-.23.88-.15.92-.67,1.58-.55.68-.83.74,0,.1-.36.94,0,.52v.46l.3.75-.07.83.1.79-.17.64.19.72-.23.79.08,1.33,0,.59.17.72.08,1.44v1l-.29.56.09.31.19.91-.11,1.51.06,1.52-.19.52.28.7-.32.95-.08.93.55.92-.44.87.13.61-.2.69.12.63,0,.61.15.72.09.91-.23.72,0,.66-.15.67.05.46.21.82.06.9-.26.77-.17,1.94,0,.56.07.53.32.84-.23,1.51.09.78-.21.68.21,1.24-.06,1.08-.16.5.07.59-.08.81.06,1.12.19.84,0,.69-.1,2.09.11.7-.12,1.06-.12.34.31.72L143,370l.15.54,0,.72.17.72-.15,1.76-.16.52.05.57,0,.67.09.72v.54l.3.83-.34,1.46.11.73-.17.69.1.58,0,1-.11.45.16.61,0,.78.08.8-.17.64.31,1.47-.22.54.39.72-.38.82.18.68-.28.67.21.59-.14.67.34.84-.45.87v.25l.37.91-.27.71.21.54-.05.91v.77l-.16.58.15.58,0,.72.17.82-.22.78,0,.44.24.89-.31.83v.38l.23.79-.14.72.2.8-.36.85,0,.38.27,1-.51.87-.25,1.29-.32,1.09-.56.44-.07.58-.64,1L140,414l-.34.8-.7.4-.27.57-.49.38-.18.78-.87.51-.23.3-.28.64-.51.88-.77.36-.17.26-.29.73-1,1-.17.83-.92.71-.68.43-.75.59-.7.33L130,425l-.9.29-2.35.34-.55,0-.59.43-.95-.35-.73.2-1.41-.38-.78.32-.88-.23-.78.1-.69-.21-.73.18-1.49-.35-.88.25-.89-.45-.41,0-.85.18-.69-.15-.78.2-.81,0-2.47-.25-.57-.15-.7.06-.66-.1-.78.22-1.7-.31-.52,0-.63.12-1,.12-.81-.21h-.54l-.79.14-1-.11-.61-.16h-.81l-.64-.23-.64.12-.93.05-.58-.19-.8.31-.81-.32-.73.17-.83-.28-.47,0-1,.23-.83-.41H88.75l-.86.2-1.63-.28-.78,0-.54-.09-.71.18-.91-.08-1.39-.2-.83.13-.67-.17-.83.26-.87-.37-1.22.08-.85.12-.84-.14-.89-.06-.65-.17-.47,0-.79.22-.91.08-1.57-.35-1.39-.1-2.19.14-.74-.06-.91.11-.67-.27-.73.18-.7-.24-.74.2h-.75l-1.06-.05-.47-.28-.61.3-.91-.21-.79.1L57,423l-.52-.07-.7.1L55,423l-1.53.09-1.54-.3h-.63l-.73.07-1,0-.69-.31-.43,0-.8.14-1,.08-.75-.28-.42,0-1,.29-.94-.37-.51-.07-1.55.11-.77-.14h-.77l-.63-.07-.83.1-.86-.24-.46-.05-.76.21-.85.08-1-.12-.48-.12-.81.22-1-.33-.53-.11-.51,0-.92.26-2.11-.43-.76.29-1.14-.16-.49-.14-.65.15-1.94-.21-1.18-.45-.93-.11-1.25-.93-.71-.35-.89-.58-.34-.92-.34-.59-.29-.62-.2-.57-.46-.62-.26-1v-.65l-.23-.71.08-1.19.16-.45-.12-.58,0-.6-.25-.95.28-.63-.25-.59.15-.8-.15-.74.17-.65-.26-.79.36-.81L16.14,403v-.6l-.29-.81.17-.76-.16-.7.16-.78-.08-2.15.13-.52L15.8,396l.12-1.09.14-.58,0-1-.5-.94.38-.91-.08-1-.36-.82.2-.91v-.52l-.1-.71v-.9l.08-.61-.05-.73.15-.75v-.4l-.28-.79-.07-.78,0-.64-.14-.67v-.8l0-1.59.25-.59-.13-.49,0-.68-.21-.73-.08-.81.14-1.33-.11-.69,0-1,.13-.63,0-.41-.25-.64,0-1.05.18-.53-.26-.66.21-.78-.14-.62.17-1.38-.2-.73-.09-1.44L15,363l-.05-.62v-.72l-.08-.64-.2-.87.24-.71-.13-.63.15-.75-.2-1.33,0-.79.18-1.3-.3-1.46.2-.66-.22-.67.21-.85v-.44l-.23-.78.12-.72-.18-.71.12-.7-.15-.67,0-.63-.17-.86.22-.81v-.57l0-.47-.37-.94.44-.91v-.33l-.2-.69,0-.79-.07-.69v-.68L14,337.19l.26-1.48,0-.65,0-.44-.32-.75.05-.81-.15-.73.11-.8,0-2.68-.17-1.33,0-.84.08-.77,0-1.16-.18-.75.25-2.32.19-.93.2-.53,0-1,.59-.63.16-.66.44-1,.37-.2-.08-.38,1.16-.5.38-.73.77-.24.3-.54.48-.55.75-.71.71-.25.41-.47-.14-.48-.76-.61v-.92l-.31-.46L19,308.5l-.16-.58-.24-.48-.44-.69-.43-.93.17-.95,0-1-.33-.72L17.42,302l.23-.64-.13-.63.13-.69-.13-.61-.11-.91.26-.83.08-.52,0-.44-.39-1,.32-.68-.32-.71.35-.71-.27-.59.23-.9v-.42l-.22-.73,0-.86.14-1,.1-.31-.31-.64.26-1.19.11-.3-.25-.5,0-1.14.32-.72v-.24l-.4-.76.22-1.54-.18-.64.06-1.07.27-.55-.37-1.24.37-1.44-.23-.67.18-.63-.33-.65.25-1.26.16-.36-.15-.49.05-1.05.1-.47-.12-.48-.29-.93.28-.87.05-.71.08-.4-.33-.78.32-.84-.07-.53,0-.57-.34-.83.41-1.41-.15-.71v-.61l-.19-.92.26-.56-.3-.59.22-.9-.06-.69.14-.54-.34-.84.46-.85,0-.22-.49-1,.47-.82-.11-.45,0-.78,0-.51-.27-.8.16-1.1.12-.39-.24-.75.34-.78-.05-.31-.36-1,.3-.76-.12-.58,0-.78.19-1.24-.39-.8.42-1,0-.31-.24-.73-.12-1,.34-.71-.15-2,.23-1.13-.37-.65.17-2.25-.25-.76.22-.79-.1-.72.22-.63-.15-.64,0-.82.14-.63-.09-.5-.07-.94.12-.55-.31-.84.35-.66-.24-.55.16-.81-.14-.64.1-1,.25-1.06,0,0-.15-.07L16,220l-.81-.76-.33-.37-.79-.36-.67-1.05-.23-.6-.42-.85-.17-.88,0-.86.17-.66-.07-.52-.21-.91.32-.86,0-.41-.32-1.54.27-.87.07-.56,0-.56-.1-.62-.23-.89.25-.81,0-.53v-.65l-.13-.77,0-.86.22-.75,0-.46-.15-.77.19-.82,0-.49-.13-.58-.26-.82.1-.77-.15-.91.43-.75V195l-.46-.81.25-1.27.18-.44-.05-.33-.3-.83.18-1.19.2-.51v-.37l-.23-.85.17-.62-.33-.75.3-.8-.26-1.3,0-.92.23-.56-.18-.54.17-1.74.12-.53,0-.38-.37-.83.29-1.85.14-.41-.14-.63,0-1.28-.23-.78.23-1.47-.13-.7v-.93l.23-.49-.19-.53-.14-.95.28-.78.05-1.36.08-.53-.13-.66.1-1.45-.07-.71.14-1.46v-.53l-.32-1.43-.09-1,.39-.72-.1-1.92.09-.56-.2-.7-.06-.7-.12-.73.05-1,.2-.43-.35-.68.39-.93v-.37l-.23-.82.2-.89.06-.57-.1-1.25-.17-.79.13-.87.05-.74.09-.48-.14-.72v-.81l.17-.71v-.52l-.1-.73.06-.75,0-.64,0-.66-.27-1.63.25-.52-.34-.62.27-.85-.13-.57.11-1.11.17-.49,0-.37-.27-.8.15-1.14.14-.4-.17-.61.11-.74-.12-.66.08-.93.09-.52-.11-.68v-.62l-.15-.84.18-.67-.16-.77.21-.53-.32-.55.16-1.25.19-.53,0-1-.32-.79.2-1.19.3-.55-.09-.73.37-.82.14-.85,1.08-1.57.73-.53.38-.37.42-.78.68-.4.44-.73.91-.31.23-.23.42-.88.72-.28.23-.56.5-.38-.39-.31-.3-.66-.65-.42-.67-.74-.37-.62-.34-.46-1.14-1.15-.23-.68-.63-.67V101l-.53-.5-.13-1.13,0-.78v-.33l-.49-.69.14-1.95.09-.37-.35-.79.33-.79-.15-.57.09-.72-.19-.88.37-.75-.07-.54.08-.54L14.27,89l.11-1.17.11-.39-.25-.73.27-.74-.19-.69.28-.86,0-.28-.47-.84.32-.85-.15-.69.2-.59-.27-.56.22-2.17-.3-.71L14.63,75l-.27-.7.08-.74-.21-.71.26-1.75.09-.33L14.21,70l.33-.85-.26-1.31.15-.66-.19-.69L14.6,65l-.09-.65.13-.71L14.57,63l.07-.69-.05-.48-.33-.93.32-.85,0-.42L14.45,59l-.29-1,.31-.74-.11-.6v-.8l.1-.5-.34-.81.34-.77-.09-.36-.19-1,.22-.6-.27-.75.38-.83,0-.45-.13-.84.24-.76,0-.32-.34-.74.18-2.62.14-.41-.19-.69.26-.76-.06-.34-.33-.81.14-1.17.19-.55v-.54l-.13-1.42.14-.69L14.36,35l.15-.49-.35-.68.22-.85-.11-.61.08-1.67.26-.6-.17-1.3.13-.69-.08-.65.06-.73-.13-1.43.12-.52L14.18,24l.28-.81-.28-1.44.28-.71-.1-.65.24-.79v-.35l-.32-.76.33-2.25,0-.57-.16-.83.21-.77,0-1.14-.22-.83.17-.66-.27-.78.3-.68-.19-.5,0-1.2.43-.59,0-.9.83-.63L16,5.57l.38-.48.5-.88.83-.33.47-.49.92-.46L20,2.6l.83.06.72-.19.68.08L23,2.3l.83-.08.83,0,1.44.21.86-.2.83.34.38,0,.85-.28.88-.11,1,.15.62.18h.53l.79-.13.83.09h.62L35,2.35l.89-.09.69,0,.81-.15.82,0,.74.1,1.47-.07,1,.1.59.19.57,0h1.53L45,2.37l.84.08h.62l.76-.07.81,0,.52,0,.81-.28,1.12.1.5.12.78-.2.66.21L53.15,2l1,.4.47,0,.55-.1L56.06,2l.95.08.77.13.5,0,.93-.3.73.31L60.65,2l.68.26L61.91,2,63.1,2l.66.14.82,0,.45.09L65.65,2,67.42,2l.94.1.5.12L69.6,2,71,2.26,71.8,2l.83.21.69-.12.85,0,.59.11.68-.24.94,0,2,.27.88-.4.9.32.52-.06.9-.18.71.19L83,1.94l.8-.07,1.76.1.49.12.66-.18,1.58.14L89,1.93l.67.07,1-.31.77.41L91.92,2h.83l.86-.07.73.17L95.06,2l.6.11.75-.28.83-.09,1,.06L99.44,2l.83-.23.91.29.39,0,.86-.36,1,.3.38,0,.75-.35,1.21.15.57.18.45,0,.83-.23.81-.08.81,0,.85,0,.8.24.62,0,.37,0,.24-.07,1.08-.15.74.36.63-.09.86.16,1.43.17.67,0,.93,0,.75.1.81,0,.68.13.51,0,.84-.25.87.14.82,0,.83.25.59.08.66,0,1-.12.69.38.56-.11,1,.11.51.12.86-.21.74.32.64-.15.77.13.93-.18.73.38.65-.13.72.19.79-.19.91.29.81.1.48.13.88-.23.76.38,1-.12.74.62.76.18,1,.46.41.69.61.34.56.47,1.2,1.3.47.78.24.63.75,1.36.13,1.1-.12.51.42.72-.26.94,0,.62L148,16.72v.62l.08.71,0,1.29.33.9-.37.81.15,1.24v.89l-.23.61.12.58L148,25l.31.84-.31.79L148,27l.28,1-.25.76.12.7-.18.56.35.7-.31.91,0,.41.21.87-.19.7.14.6-.09,1.09-.13.4.22.74-.31.77.08.54,0,.53.33.79-.22,1.2-.14.35.23.66-.22.69.22.56-.05.85.07.9-.35.74v.24l.37.79-.17.89,0,.71-.14.62.14.69-.12.62.3.82L148,51l.25.52-.07,1v.62l0,.29-.13.43.14.62.05.92-.3.76,0,.42.31,1.52-.24.61.25.62-.2.88v.58l.08.76-.11.57.27.69-.2,1.09-.16.52,0,.34.39.91-.3.84.05.38.22.89v.84l-.22.78L148,70l0,.61V71l.37.83-.21.84.12.78-.29.69.17,1.23L148,76.74l.19.81-.28.86-.06.5,0,.44.35.82-.15.86.08.76-.19.57.22.58-.07.81.11.86-.31.75v.31l.28.76-.15,1.19-.13.32.22.51,0,1.1-.22,1.08.32.79-.26.73.21.61-.13.72.26.87L148,95l.16.47.15.9-.2.76,0,.45.19.75-.05.78.08,1-.38.6.16.54-.18.64.22.6.17,1-.32.59.25.62-.3.74.2.66-.22.67.2.58,0,.7Zm-5.39-93,.18-.81,0-.48-.12-.57-.47-1.48.1-.05h0l.09-.59v0l-.7-.2-1-.84h-.3l-.82.26L138.73,11l-.59-.2h-.47l-.89.21-.68-.16-.8.3-.84-.27-1.42.25-.94,0-.63-.22-.61.18-1.81-.16-.61-.12-.47,0-.86.33-1.9-.26-.5-.14-.69.14-1.41,0-.81.2L120.24,11l-.76.13h-1l-.57-.24-.61.2-1,.12-.83-.25-1.46-.05-.6-.07-.71.11-1.54-.08-.76.06-1.56-.13h-.6l-1.52.3-1,.08-.76-.37-2.08.1-.62-.09-.76.2-.74,0-.77.11-1,0-.51-.21-.73.33-1-.35h-.46l-.86.21-1-.18L94,10.87,92.62,11l-.83.15-.9-.12-.78,0-.57-.09-.76.13h-.85l-.76-.15h-.59l-.78.09-.84,0-.66,0-.71,0-1.7.25-.59-.25-.67.33L79.74,11l-.63.12L78,11l-.57-.18-.45,0-.84.26L75,11l-.49-.14-.66.16-.79-.1-.72.11L71.48,11l-.68-.11-.74.11h-.68l-.87.13-.73-.17-.8.15-.6-.21-.62.31L64.52,11l-.6-.19-1.16,0-.81.29L60.74,11l-.41-.15-.62.22-.8-.08-.76.19-.86-.1h-.81l-.77-.19h-.47l-.85.27L53.61,11l-.84.22-.87-.37h-.37l-.94.34-.73-.28-.6.25-.9-.08-.86.07-.71-.22-.75.12-.68-.22-.72.18-.86,0L43,10.86l-.58,0-1.53.23-.69-.14-.84.22-.62-.23-.49.26-1,.07-.54.08-.21.09-.22.55-.62.57-.55.69.11.63-.34.62.13.52-.1.73.17.89-.37.74.06.54-.09.54.31.67-.13,1.18-.12.39.24.74-.27.73.17.69-.29.86,0,.29.45.86-.33.84.15.69-.21.58.26.56-.25,2.17.29.71-.5,2.78.26.71-.09.74.2.71-.28,1.75-.1.33.36.75-.34.85.25,1.3-.17.67.19.69-.38,1.5.08.66-.14.71.06.65-.08.7.05.47.32.94-.34.84,0,.43.09.57.28,1-.31.73.1.49,0,1-.09.4.33.82-.36.76.09.37.18,1-.23.61.26.75-.39.83,0,.44.12.84-.24.75v.32l.33.74-.22,2.63-.14.4.18.7-.27.75.05.35.32.82-.16,1.16-.19.55,0,.54.11,1.42L34,71l.18,2.17-.15.48.34.69-.23.85.1.61-.1,1.67-.27.6L34,79.4l-.14.69.07.65-.07.73L34,82.9l-.12.52.35.76L34,85l.26,1.45-.3.7.1.65-.25.79,0,.35.31.76-.36,2.25.05.57.14.83-.22.77,0,1.14.21.84-.18.65.26.79-.3.65.19.57.11.94-.22.57L34,101l-.4.82.06,1,.27.88-.23.71.14.66v1.6l-.26.63.06.6-.1.51.23.5.73,2.18.6.39.31.63.2.1.59,0,.93.17,1.27.42h.51l.8-.13.83.07.64,0,.68-.11.89-.1.71,0,.81-.16.83,0,.75.09,1.48-.09,1.06.09.59.18,2.88-.12.84.07h.62l.77-.08.81,0,.54,0,.81-.29,1.13.09.51.12.78-.21.67.2.77-.37,1,.38.48,0,.56-.11.87-.29,1,.07.78.12h.51l.94-.31.74.31.72-.28.69.25L69,112l1.19,0,.67.13.82,0,.46.09.62-.26,1.71-.1,1,.09.51.11.74-.2,1.41.25.81-.3.83.2.7-.13.86,0,.6.1.67-.24,1,0,2,.24.88-.41.91.31.52-.07.9-.19.72.19.67-.17.81-.08,1.77.08.51.12.65-.19,1.6.11.74-.12.67.06.94-.33.79.4.51-.14H100l.86-.08.73.16.72-.1.61.1.76-.29.83-.1,1,0,1.25.19.84-.23.91.27.4,0,.86-.37,1,.28.39,0,.74-.36,1.22.14.58.17.45,0,.82-.24.82-.09h.81l.85,0,.81.23.63,0,1.28-.11,1-.24.76.3.61-.14.87.08h.7l.73,0,1.52-.14.81,0,.73,0,.75.07.51,0,.8-.33.89.07.8-.12.85.17.59,0,.65-.08,1-.21.71.31.54-.16H137l.64-.19.79.26.67-.19.8.07.89-.23.56.19.44-.26.3-.1.22-.45.51-.43.24-.58-.34-.57.16-1.27.11-.32-.32-.65L143,105l.12-.3-.25-.51,0-1.15.32-.72V102l-.41-.76.22-1.54-.18-.64L142.8,98l.28-.55-.38-1.24.38-1.44-.23-.67.17-.63-.32-.65.25-1.27.16-.35-.15-.5,0-1,.1-.49-.41-1.42.29-.87,0-.72.08-.4-.32-.78.31-.84-.06-.54,0-.56-.33-.84.41-1.41L143,80.1v-.61l-.18-.93L143,78l-.29-.59.21-.9,0-.7.13-.53-.34-.83.46-.86,0-.21-.49-1,.47-.82-.1-.44,0-.78,0-.52-.26-.79.15-1.1.13-.4-.25-.76.34-.77,0-.31-.37-1L143,64l-.12-.58,0-.77.18-1.24-.39-.8.43-1,0-.3-.25-.73-.12-1,.35-.7-.16-2,.24-1.12-.38-.66.17-2.25-.24-.77.22-.78-.11-.73L143,48l-.14-.64,0-.83.14-.63-.08-.51-.07-.93.12-.55-.31-.85.35-.66-.24-.54.15-.8-.13-.64.09-1,.25-1.06-.26-.75.24-.8-.07-.48-.2-.82.26-1.28-.29-.63,0-.93.08-.64-.1-.71v-.7l.05-1,.13-.51-.06-.5-.22-.9.33-.85,0-.4-.33-1.53.28-.86.07-.55V23l-.1-.6-.22-.9.25-.79,0-.53v-.64l-.14-.76v-.86l.22-.74,0-.45Zm-2.77,261.35.46-.86,0-.22-.49-1,.47-.82-.11-.45,0-.78,0-.52-.27-.8.16-1.1.12-.39-.24-.76.34-.78,0-.31-.36-1,.3-.77-.12-.59,0-.77.19-1.26-.39-.8.42-1,0-.31-.24-.74-.12-1,.34-.71-.15-2,.23-1.13-.37-.67.17-2.26-.25-.77.22-.79-.1-.73.22-.64-.15-.64,0-.83.14-.63-.09-.51-.07-.93.12-.56-.31-.85.35-.66-.24-.54.16-.81-.14-.65.1-1,.25-1.06-.26-.76.23-.8-.07-.49-.19-.83.25-1.28-.29-.64,0-.93.08-.65-.11-.72v-.7l.06-1,.13-.51-.07-.51-.21-.9.32-.85,0-.4-.32-1.54.27-.86.08-.55v-.55l-.1-.61-.23-.89.25-.81,0-.52v-.59l-.5-1.64-.15-.21-.61-.32-.43-.34-.34-.1-.45,0-.81.24-.8-.07-.25,0-.23.17-.11.26,0,1-.78,1.05-.21.19.07.91-.4.09.14.54-.74-.08,0,.73-1-.49-.25.13-.93-.32-.63.16-1.82-.2-.61-.14-.47,0-.89.31-1.9-.31-.5-.16-.7.13h-1.41l-.82.18-1.56-.26-.67.11-1,0-.56-.25-.62.18-1,.1-.83-.28-1.47-.09-.6-.09-.72.1-1.54-.13-.76,0-1.56-.17h-.61l-1.53.26-1,.05-.76-.39-2.1,0-.63-.11-.76.18-.76,0-.77.09-1-.07-.5-.22-.74.3-.94-.37h-.46l-.86.18-1-.21-.59-.06-1.37.05-.84.13-.9-.15-.78-.06-.56-.11-.67.12-1.06,0-.65-.15-.59,0-.78.07-.84-.08h-.65l-.71-.05-1.71.21-.58-.27-.7.3-.87-.27-.65.11L78,222.43l-.56-.19-.46,0-.85.23L75,222.34l-.48-.17-.67.15-.79-.13-.72.1-.86-.08-.68-.12-.67.08h-.75l-.88.11-.73-.19-.81.13-.6-.23-.64.29-1.23-.16-.6-.21H62.75l-.82.27-1.2-.19-.42-.16-.63.2-.79-.11-.77.17-.86-.12-.94,0-.63-.18-.47,0-.86.25-.77-.2-.85.2-.85-.39h-.37l-1,.32-.72-.3-.61.23-.91-.1-.86.05-.71-.25-.76.1-.67-.24-.59.17-1.11,0-.68-.16-.58-.06-1.55.19-.7-.16-.84.2-.66-.27-.64.26-1-.18-1.16-.24-.74.34-2.1-.25.08.31-.08.74.19.88-.36.75.07.55-.08.54.32.67-.1,1.18-.11.4.25.74-.25.74.19.68-.28.87v.29l.46.86-.31.85.16.68-.2.59.28.57L33,236.23l.31.71-.45,2.8.28.71-.08.74.22.71L33,243.66l-.09.34.37.75-.32.85.27,1.31-.15.67.2.7-.35,1.51.09.66-.12.71.07.66-.06.7,0,.48.34.93-.31.85,0,.43.11.58.29,1-.3.74.12.6v.8l-.1.51.34.82-.34.78.1.36.19,1-.21.62.27.75-.38.83,0,.45.14.84-.24.76,0,.33.35.74,0,.94-.08.77,0,.92-.14.41.19.7-.25.76.06.35.34.82-.14,1.17-.18.55v.55l.14,1.42-.13.7.23,2.18-.14.48.35.69-.21.86.11.61-.07,1.68-.26.61.18,1.31-.13.69.09.65-.06.73.14,1.44-.11.53.36.76-.27.82.29,1.44-.28.71.11.66-.24.8v.35l.33.76-.16,1,0,.63-.1.65.05.57.16.84-.2.77,0,1.15.22.84-.17.66.28.79-.28.66.2.56.13,1-.21.58.29.74-.38.83.09,1.05.28.87-.22.72.16.66,0,1.6-.25.65.08.6-.1.56.24.69.09.78,0,.78L33.5,319l.24.69-.13.69.09.17.47.36.69.62.84,1,.37.18.74.1.64.15H38l.64-.15,1-.15h.63l.8-.21.82-.07.75.05,1.52-.17H45l.73.19,2.86-.28.84,0,.62,0,.81-.12,1.27-.09.78-.33,1.14,0,.51.09.77-.25.67.16.75-.41,1,.32h.48l.55-.14.85-.33h1l.79.08.5,0,.91-.36.76.26.69-.31.7.2.56-.34,1.1,0,.76.11.75,0,.54.07.6-.3,1.76-.19.94,0,.52.09.71-.24,1.42.17.78-.34.84.15.69-.17.84-.07.6.06.65-.28.94,0,2,.12.85-.45.93.26.5-.1.89-.24.72.14.65-.2.84-.12,1.63,0,.59.1.64-.23h.91l.68,0,.73-.17.67,0,.92-.38.81.36.63-.18.7,0,.85-.13.74.12.71-.14.6.07L100,318l.89-.14.83,0L103,318l.82-.28.93.22h.39l.84-.41,1,.22.39,0,.71-.4,1.22.07.59.13.44-.06.81-.28.87-.14.74,0,.85-.09.81.19h.62l1.27-.18,1-.29.78.25.6-.18.86,0,.69,0h.73l1.56-.24h.75l.72-.08.76,0,.49-.05L126,316l.89,0,.79-.15.86.12h.58l.65-.12,1-.27.73.28.67-.2.81,0,.58.06.81-.34.77.21.6-.23h.77l.88-.31.77.27.62-.22.73.09.74-.3.16,0,.15-.32-.27-.62.23-.9v-.44l-.22-.74,0-.87.13-1,.11-.32-.31-.65.25-1.19.12-.31-.25-.51,0-1.14.32-.72V305l-.4-.76.22-1.54-.18-.64.06-1.08.27-.56-.37-1.25.37-1.45-.23-.68.18-.63-.33-.66.25-1.26.17-.37-.16-.5.05-1,.1-.49-.12-.48-.29-.94.28-.87,0-.72.08-.41-.33-.79.32-.84-.07-.54,0-.57-.34-.84.41-1.42-.15-.7v-.61l-.19-.93.26-.56-.3-.6.22-.9-.06-.71.14-.54Zm-2.14,103,.13-.72-.07-.66.07-.7,0-.48-.33-.94.32-.85,0-.42-.11-.58-.29-1,.31-.73-.11-.6v-.8l.1-.5-.34-.81.34-.77-.09-.36-.19-1,.22-.61-.27-.75.38-.84,0-.45-.13-.84.24-.76,0-.32-.34-.74.18-2.61.14-.41-.19-.69.26-.76-.06-.35-.33-.82.14-1.16.19-.56v-.54l-.13-1.42.14-.7-.22-2.17.15-.48-.35-.69.22-.85-.11-.61.08-1.67.26-.61-.17-1.3.13-.7-.08-.65.07-.73-.14-1.44.12-.52-.36-.76L138,339l-.28-1.44.28-.71-.1-.65.24-.79V335l-.32-.76.33-2.25-.05-.57-.16-.83.21-.77,0-1.14-.22-.84.17-.66-.27-.78.29-.66-.2-.57-.12-.94.21-.58-.29-.75.39-.82,0-.22-1.42.69-.74.09-.69.37-.48.14-.56.52-.76.45-.69.28-.68.22,0,.16-.37.77,0,.29.29.81.12.85-.18,1-.19.56v.45l.13.76-.09.78v.56l.11.62.09.86-.05.64.16.77v.78L132,336l.06,1.36-.12,1-.2.51,0,.5,0,.76v.68l.07.72-.1.8V343l.07.71,0,.77,0,.45.3.77-.13,1.13-.12.41.21.74-.22.6.38.73-.46,1,0,.38.1.48.3.85-.11,1-.13.63,0,.41.34.92-.34.67.27.67-.27.62.31.51-.08,1.19-.15.6-.05.78-.09.36.26.55.06,1.71-.11.92-.12.42.2.69-.3,1.29.3.77-.23.79.12.64V369l-.11.51.24.62-.05.92-.3,1.85.43.85-.36.88,0,.43.2.88-.21.66.16.6.06.76-.13,1.7-.12.42.18.59-.15,1.49.12.69-.08.61.34.92-.45.73.13.43,0,.8.08.83-.19.67.09.67-.11.53.26.54.11,1-.07,1-.23,1.09.24.8-.33.88,0,.29.39.83-.34,1,0,.28.36.7-.19,1.22-.18.5,0,.36.24.79.08.77,0,.77,0,.82-.27.75,0,.5.09,1.21.24,1-.33.7.13.54-.11.83v.63l-.06.67.12,1.42-.05.71,0,.73-.1.69,0,.41.34.77-.09.85.1.76L132,416l.41-.25.19-.56.51-.54.33-.84.71-.38.22-.57.54-.46.24-.72.75-.58.51-.59.23-.19,0-.8.65-.5.14-.58.2-.4v-.76l.41-.57,0-.44.08-.52-.31-.67.11-1.18.11-.4-.25-.74.27-.74-.19-.69.28-.86,0-.29-.47-.86.32-.85-.15-.69.2-.59-.27-.57.22-2.17-.3-.7.46-2.79-.27-.7.08-.75-.21-.71.26-1.75.09-.33-.37-.76.33-.85-.26-1.31.15-.67-.19-.69.36-1.5Zm-11.25-42.4L127,337l0-.48-.12-.57-.27-.81.1-.78-.15-.9.43-.75v-.17l-.46-.8.25-1.26.18-.44,0-.32-.3-.83.14-1.07.12-.44-.07-.21-.55-.64-.15-.3-.62-.19-.46-.48-.34,0-1.67.06-.63-.23-.62.17-1.81-.19-.61-.13-.47,0-.88.31-1.9-.28-.49-.16-.69.13h-1.41l-.81.19-1.56-.25-.66.12-1,0-.56-.24-.61.19-1,.1-.83-.27L105,325l-.6-.09-.71.11-1.54-.11-.76.05-1.55-.16h-.6l-1.53.27-1,.06-.76-.38-2.09.06-.63-.1-.76.18-.74,0-.77.1L90,325l-.51-.21-.73.31-.94-.36h-.45l-.86.19-1-.2-.58-.06-1.37.07-.83.14-.9-.14-.78-.05-.56-.11-.72.14-1.2-.14-.6,0-.88.15h-.76l-.66.07-.73,0-1.7.38-.61-.21-.66.38-.92-.18-.75.17-.88,0-.71-.16-.46.08-.82.31-1.15,0-.5-.11-.66.21-.8-.05-.82.17h-.76l-.7-.05-.74.16-.68.07-.87.2-.75-.12-.79.22-.63-.17-.61.36-1.25,0-.62-.14-1.18.1-.79.35-1.21-.06-.44-.12-.61.27-.81,0-.75.24-.87,0-.82.07-.78-.13-.48,0-.83.33-.79-.11-.83.28-.89-.3-.37,0-.92.42-.75-.23-.58.3-.92,0-.85.14-.74-.17-.75.18-.69-.17-.72.24-.86.08-.81-.11h-.59l-1.52.34-.27,0-.86.19-.77.13h0l-.28-.43-.48.32-.69-1.66-.49-.41-.1-.87-.43-.49-.28-.71-.56-.7,0-.23-.57-.09-.71.27-1.16-.13-.45-.14-.76.22-.76-.27-.73.15-.86-.28-.36,0-.88.39-.51-.19.15.32L19,325.83l.33.71-.38,2.81.29.7-.06.75.23.7-.21,1.76-.08.34.39.75-.3.86.3,1.29-.14.68.21.68-.31,1.52.1.65-.11.72.09.66,0,.7.07.48.36.93-.3.86,0,.43.12.58.32,1-.29.74.13.6,0,.8-.09.51.36.81-.32.78.1.36.22,1-.2.62.29.74-.36.85,0,.44.16.84-.21.76,0,.32.36.73L20,359v.76l-.17.56.21.69-.23.77.06.34.35.81-.11,1.17-.17.56.06,1.17.12.79-.12.69.28,2.16-.13.49.37.67-.2.87.13.6,0,1.68-.25.61.21,1.31-.11.69.1.65,0,.73.17,1.43-.1.53.38.75-.26.83.33,1.43-.27.72.12.65-.21.8v.36l.34.75-.25,2.26.06.57.18.83-.18.78.06,1.13.24.83-.15.67.3.77-.28.67.22.56.15.93-.19.58.3.74-.36.84.11,1,.3.87-.2.72.17.66.07,1.61-.24.65.09.6-.09.56.27.69.1.78,0,.78-.19,1.32.24.82-.35.78,0,.28.31.79.14.84-.15,1-.17.55v.4l.32,1.22.21.36.42.35,1,.63,2,.27H26.9l1,.14.57.22,2.12.07.77,0,.84.11.62,0,.76,0,.81.06h.53l.83-.25,1.12.16.49.15.79-.17.65.24.8-.32,1,.44.47.06.57-.07.89-.24.94.12.77.17.5,0,1-.26.72.35.74-.23.67.28.6-.28,1.18.11.66.17.82.08.45.11.63-.22.91,0,.91,0,.89.14.5.14.75-.16,1.39.34.82-.26.82.25.62-.09,1,.05.48.11.68-.21.94.09,2,.35.9-.35.89.36.52,0,.91-.14.71.22.67-.12.8,0,1.75.18.49.14.65-.15,1.58.21.75-.08.66.1,1-.27.75.44.52-.11.83.05.87,0,.71.21.73-.07.59.14.78-.25.83-.05,1,.11,1.22.26.85-.18.89.33.39,0,.88-.32,1,.34.38.06.77-.31,1.2.2.56.2h.46l.83-.18.82-.05,1.83.12.61.23.62.06h.66l.62,0,1-.18.73.33.61-.1.86.14,1.41.12,1.52-.06.8.09h.8l.67.11h.5l.83-.28.87.12.81-.06.84.22.58.06.66,0,1-.15.69.36.54-.13,1,.08.51.1.85-.23.73.29.63-.16.76.1.92-.21.73.35.64-.14.72.17.77-.22.91.26.42,0,0-.21h1.41l.13,0,.68-1.06-.35-1.16.37-1.46-.23-.67.18-.63-.33-.66.25-1.26.17-.37-.16-.5,0-1,.1-.48-.41-1.42.28-.88.05-.71.08-.4-.33-.79.32-.83-.07-.54,0-.57-.34-.84.42-1.42-.16-.7v-.61l-.19-.94.26-.56-.29-.59.21-.91-.06-.7.14-.54-.34-.84.46-.85,0-.22-.49-1,.47-.82-.11-.45,0-.78,0-.52-.27-.8.16-1.1.12-.39-.24-.76L127,388l0-.3-.36-1,.3-.77-.12-.57,0-.78.19-1.24-.39-.79.42-1,0-.3-.24-.73-.12-1,.35-.7-.16-2,.23-1.12-.37-.66.17-2.24-.25-.78.22-.78-.1-.73.22-.64-.15-.63,0-.83.14-.63-.09-.51-.07-.93.12-.55-.31-.85.35-.66-.24-.54.16-.81-.14-.64.1-1,.25-1.06-.26-.76.23-.79-.06-.49-.2-.82.25-1.28-.28-.64,0-.93.08-.64-.11-.72v-.69l.06-1,.13-.5-.07-.51-.21-.9.32-.84,0-.4-.32-1.53.27-.86.08-.55v-.55l-.1-.61-.23-.89.25-.8,0-.52v-.65l-.13-.77,0-.86.23-.74,0-.46ZM18,212l-.25.9-.05.77-.1.45,0,.16.6.54.08.45.31.1.18-1.13L20,215.73l.53.09.41.13.72-.28,1.18.26.39.14.59-.23H25l.76.31.35,0,.81-.36,1.63.25.7-.15,1.08.09.62.28,1.37-.31,1,.21.55.18.73-.2.69.19.72-.29,1.24.25.44.19.58-.14,1.05.07.56.12,1.53-.34.89.28.77.06.49.1.83-.28.86.32.61,0,.63,0,.88-.28,1.5.42.66-.13h.78l1-.14.62.27.66-.27.92.22.75,0,.6.15.88-.28.87.43h.32l1-.4.84.45.53-.09.86.05.54,0,.85-.22,1.1.16.47.15.81-.21.81.34.41,0,1-.29.79.3.65-.1h.81l1.36.22.85-.33,1,.4.4,0,.78-.21,1-.08.74.35,2.15-.09,1.25.26.73-.34,2.37.23.82-.21.82.23.78-.08.68.24.7-.13,1,0,.58.13.59-.06,1,0,.62.14.89-.26.7.35.62-.22.84.16.7-.11,1,.12,1.19.27.81-.21.82.24.56-.06.87-.15,1.38.27.69-.25,1,.06.7.09.69-.08,1.79.1.58.14.58-.05.93-.16.87.32.49,0,1.63-.25.88.27.66.1.57,0,.67-.08.93-.18.83.26h.59l.7,0,.74-.1,1.09.05.65.19.53.05.82-.12.84.2.55,0,.64-.1.86-.21.8.11.94-.11.78.42h.27l.86-.4,1.24.26.47.18.32-.06.74-.4,1.28-.35.21-.2.38-.77.2-.23-.09-.61.3-.64-.27-1.26,0-.93.22-.57-.19-.55.14-1.76.12-.55-.05-.39-.38-.83.26-1.87.13-.42-.16-.63-.05-1.3-.24-.77.21-1.47-.14-.71,0-.93.23-.51-.2-.54-.16-1,.27-.79,0-1.37.07-.54-.14-.66.07-1.46-.08-.71.12-1.46,0-.54-.35-1.43-.1-1,.38-.73-.13-1.93.08-.57-.22-.7-.06-.7-.14-.73,0-1,.19-.43-.36-.68.37-.93,0-.37-.24-.81.18-.9.06-.57-.13-1.26-.17-.79.12-.88,0-.74.09-.49-.16-.71,0-.82.15-.71v-.52l-.11-.73,0-.75,0-.65,0-.66-.3-1.64.25-.52-.35-.62.25-.86-.13-.57.08-1.12.17-.49,0-.37-.28-.8.13-1.14.13-.41-.18-.6.11-.75-.13-.66,0-.93.09-.53-.12-.68,0-.63-.17-.84.18-.69-.18-.76.21-.55-.33-.55.13-1.25.18-.54,0-1-.33-.77.17-1.21.13-.33-.24-.56.08-.75-.22-.71.1-.83,0-.78.2-.72v-.39l-.31-.81.18-.73-.26-.81.4-.84V138l-.4-.92.29-.67-.27-.54.08-.88-.1-.83.23-.66-.14-.71.22-.62-.19-.51,0-1,.17-.75,0-.52-.27-1.44.14-.65-.26-.79.26-.61-.3-.57.15-1,.2-1-.4-.66.14-1.87.09-.37-.37-.77.3-.74-.17-.5-.07-.41-.44-.53-.13-.61-.65-.51h-.6L125,116l-.74.23-.79-.22-.75.19-.9-.24h-.4l-.88.43-.89-.27-.75.16-.66-.18-.63.27-2.33-.16-.76.3-3-.37-.74.26-.8-.06-.75.22-1.74-.19-.52-.11-.79.36-.9-.28-1.42.27-.73-.13-.74.2-1.61-.31-.71.1-.76-.11-.72.09-.75,0-.56.06-1,.31-.89-.27-.52,0-.69.12-1,.27-.78-.27-.67.13-.84,0-.58-.09-.84.32-.82-.3-.45.11-1,.19-.68-.2-.79.27-.88-.33-.52,0-.88.13-.8-.2-.43,0-.78.33L79.7,117h-.81l-.63-.18-.74.2-.8-.22-.43.06-.86.32-1.16-.1-.63-.17-1.3.05-.84.1-.75-.11-2.32.25-.56-.14-.73.35-.89-.19-.67.12-1.9-.09-.52-.19-1.42.2-.75-.11-.71.09-.78,0-1.53.16-.61-.11-.8.35-.86-.24-1.53.29-.77-.25-.71.11-.84-.2h-.44l-.8.3-2.4-.25-.63.06-.87.16-.81-.17-1.28,0-.86.22-.72-.15-.82.26-.73-.26-.63.22-1,.13-.65-.19-.79.28-.87-.34-1.2.1-.89.27-.78-.19-.71.16-1.68,0-.71-.22-.66.08-.63-.09-.75.25-.81.09-.82,0-1.44-.19-.85.21-.82-.33-.38,0-.83.28-.88.12-1-.13-.63-.17h-.53l-.78.14L19,118h-.5l-.33.15-.14.16v1l-.11.7.06,1.39-.12,1-.2.52v2l.07.73-.1.8V127l.07.71,0,.78,0,.45.3.78-.13,1.13-.13.42.22.74-.23.6.39.74-.46,1,0,.39.1.49.3.85-.11,1-.13.63,0,.43.33.92-.34.68.28.68-.27.62.3.52-.07,1.2-.15.61-.06.78-.08.37.25.56.07,1.71-.12.93-.12.43.2.69-.29,1.3.3.77-.23.79.12.64v.82l-.11.52.24.62-.05.92-.3,1.86.43.85-.36.88.05.45.2.87-.21.67.15.61.07.76-.13,1.7-.12.41.18.6-.15,1.5.12.7-.08.61.34.93-.45.73.13.43,0,.81.08.83-.2.67.1.68-.12.53.27.55.11,1-.07,1-.23,1.1.24.81-.33.88,0,.3.39.84-.34,1,0,.29.37.7-.19,1.23-.18.5,0,.37.24.79.08.78,0,.77,0,.82-.27.75,0,.51.09,1.21.24,1-.33.7.13.55-.11.83v.64l-.06.67.12,1.42-.05.72,0,.73-.1.7,0,.43.34.77-.1.85.11.77-.21.81,0,.52.08.6.21,1-.34.66.14.46,0,1-.09.43.3.8-.29.71.2.55-.08.73.27.88-.35.7.18.57-.15.67ZM19.93,97.82l-.17.65.28.42.1.59.5.48.22.79.36.55.23.44,1.22.91.36.6.75.47.24.64.65.28,1.19,1.76.82.23,1.2,1.23.08.07.46-.19.09-.7-.17-.88.37-.75-.06-.55.09-.54-.31-.67.13-1.18.12-.4-.24-.74.27-.73-.18-.7.3-.86,0-.29-.45-.86.33-.85-.15-.69.21-.58-.26-.57L28.78,93l-.3-.71.51-2.8-.26-.7.09-.74-.21-.72.29-1.75.1-.34-.36-.75.33-.85-.24-1.31.16-.67-.18-.7.38-1.5L29,78.83l.14-.71-.06-.66.08-.7-.05-.48-.32-.94.34-.84,0-.43L29,73.49l-.28-1,.31-.73-.1-.49,0-1,.09-.4-.33-.82.36-.77L29,67.91l-.18-1,.23-.61-.26-.76.39-.83,0-.45-.12-.84.24-.75v-.32L29,61.57l.05-.94.1-.76V59.1l.2-.56-.18-.7.27-.76-.05-.35L29,55.91l.16-1.16.19-.56,0-.54-.11-1.42.14-.7-.18-2.18.15-.48-.34-.69.23-.85-.1-.61L29.31,45l.26-.6-.15-1.32.14-.69-.07-.65.07-.73-.11-1.44.12-.53-.34-.76.28-.81-.26-1.45.3-.7-.1-.66.25-.79,0-.35-.31-.76.18-1,.06-.63.12-.65L29.72,30l-.14-.83.22-.78V27.22l-.21-.84.18-.66-.27-.79.3-.66-.19-.57-.11-.94.22-.58-.28-.74.4-.83-.06-1.05-.27-.87.23-.71-.14-.67v-1.6l.26-.64-.06-.6.11-.55-.22-.61L29.42,12l-.31-.81-.59-.34-.37-.56-.21-.07-.65.06-1.07-.06L25.36,10l-.58-.28-.51-.09h-.79l-.79-.22-.61-.08H21.4l-.95-.07-.51-.11-.21.39,0,.46,0,.71-.13,1.05-.2.52,0,.51v1.43l.06.72-.09.81v.54l.06.72,0,.77,0,.45.3.77-.13,1.13-.12.42.22.74-.23.59.39.73-.46,1,0,.39.09.48.3.84-.11,1L19.5,27l0,.42.33.91-.34.68.28.67-.28.62.31.52L19.71,32l-.16.6-.05.78-.09.36.26.55.07,1.7-.12.92-.12.43.2.69-.3,1.29.31.77-.24.79.12.63v.82l-.11.51.24.61-.05.92-.29,1.83.43.85-.37.88.06.43.19.88-.21.66.16.6.06.76-.12,1.7-.12.41.18.58-.16,1.49.12.69-.07.6.34.93-.45.73.13.42,0,.8.07.83-.19.67.1.67-.12.53.27.54.11,1-.08.95-.22,1.09.24.8-.33.88,0,.29.39.83-.34,1,0,.28.36.7-.18,1.22-.18.5,0,.36.24.79.08.77,0,.77,0,.82-.28.75,0,.5.08,1.2.25,1-.33.7.13.54-.12.83V82l-.06.67L19.49,84l-.06.71,0,.73-.09.69v.42l.35.77-.1.84.1.77-.2.8,0,.51.07.6.22,1-.35.65.15.46-.05,1-.08.42.3.81-.29.7.19.53-.05.65ZM139,214.59l-.08-.12-.12.19ZM23,224.75l-.46,1,0,.39.1.48.3.85-.11,1-.13.63,0,.42.34.91-.35.68.28.67-.27.61.3.51-.07,1.21-.15.6-.05.78-.09.37.26.55.06,1.71-.11.92-.12.42.19.69-.29,1.3.3.77-.23.79.12.64v.81l-.11.52.24.61-.05.92-.3,1.85.43.85-.36.88.05.43.2.87-.21.66.15.6.07.76-.13,1.7-.12.4.18.59-.15,1.49.12.69-.08.61.34.92-.45.73.13.43,0,.8.08.82-.19.67.09.66-.11.53.26.53.11,1-.07,1L22.67,268l.24.81-.33.88,0,.29.39.84-.34,1,0,.28.37.7L22.75,274l-.18.5,0,.36.24.78.08.78,0,.77,0,.81-.27.75,0,.5.09,1.21.24,1-.33.71.13.54-.11.82v.64l-.06.67.12,1.41-.05.72,0,.72-.1.7,0,.41.34.77-.09.84.1.77-.2.8,0,.51.08.59.22,1-.35.65.14.46,0,1-.08.42.29.81-.29.7.2.55-.08.73.27.87-.34.7.17.58-.15.66.26.73-.24.89-.08.9.37.3.3.77.58.71,0,.81.36.59.14.38.59.46.46,1.09.08.4.57.54.11.77.49.53.15.88.12.27.82.56.11.88.36.43.28-1.89-.27-.7.07-.75-.21-.71.24-1.76.1-.34-.38-.76.32-.85L28.17,306l.15-.67-.19-.7.35-1.5-.1-.65.13-.72-.08-.66.07-.7-.06-.48L28.1,299l.32-.85,0-.43-.11-.58-.3-1,.3-.74-.11-.6V294l.1-.5-.34-.82.33-.77-.09-.36-.2-1,.21-.62-.27-.75.38-.84,0-.45-.14-.84.23-.76,0-.33-.34-.73.16-2.62.14-.41-.2-.69.25-.76-.05-.34-.34-.81.13-1.17.19-.56v-.54l-.13-1.42.13-.7L28,273l.14-.48-.36-.68L28,271l-.12-.61.08-1.67.25-.61-.18-1.31.13-.7-.08-.65.05-.73L28,263.28l.12-.53-.37-.76.28-.82-.29-1.44.28-.71-.11-.65.23-.8v-.35l-.32-.76.31-2.26-.05-.57-.16-.84.2-.77,0-1.14-.23-.84.17-.66-.28-.78.29-.66-.21-.56-.13-.94.21-.58-.29-.74.38-.83-.08-1-.28-.87.21-.72-.16-.66,0-1.6.24-.65-.07-.6.1-.56-.25-.7-.09-.78,0-.78.22-1.32-.22-.82.37-.78,0-.28-.3-.8-.12-.84.17-1,.18-.56v-.44l-.13-.75.09-.78v-.54l-.11-.61-.1-.86,0-.63-.16-.77v-.78l.1-.68-.06-1.21-2-.05-.79,0-1.5-.14-.55,0,.15.39-.13,1.13-.13.42.22.74-.22.6ZM135.62,119.27l.23-.71-.15-.54-.07-.54-.32-1-.61-.48-1.15,0h0l.09.32-.36.79,0,.29.3.8.13.85-.16,1-.18.57v.45l.15.76-.09.79,0,.55.12.62.1.86,0,.64.17.77,0,.79-.1.68.08,1.37-.11,1-.19.52,0,.5v1.44l.07.72-.08.8v.55l.08.72,0,.77,0,.45.31.77-.11,1.13-.12.42.23.73-.21.6.39.73-.44,1,0,.39.1.48.31.84-.09,1-.12.63,0,.42.35.91-.33.68.29.66-.26.63.31.51-.05,1.2-.15.6,0,.78-.08.36.27.55.09,1.71-.1.92-.11.43.21.69-.28,1.3.32.76-.22.79.12.64,0,.81-.1.52.25.62,0,.92-.26,1.86.44.85-.35.88.06.44.21.87-.2.67.17.6.08.76-.1,1.7-.12.42.19.59-.13,1.5.14.69-.07.61.35.92-.43.74.13.42V178l.09.83-.18.67.11.67-.11.54.28.53.12,1-.06,1-.2,1.1.25.8-.31.88,0,.3.4.82-.32,1,0,.29.38.69-.16,1.23-.18.5,0,.36.25.79.1.77,0,.78.05.81-.27.76,0,.51.1,1.21.26,1-.31.71.14.54-.1.83v.64l-.06.67.15,1.41,0,.72,0,.73-.08.69,0,.42.35.76-.08.85.12.76-.19.81,0,.51.09.59.23,1-.08.15.35-.39.38-.66.2-.25-.28-1.14.09-.73-.19-.88.37-.74-.07-.55.08-.54-.31-.66.11-1.18.11-.39-.25-.74.26-.73-.18-.69.28-.86,0-.29-.47-.85.32-.85-.15-.68.2-.58-.27-.57.22-2.17-.3-.71.46-2.78-.27-.7.08-.75-.21-.7.26-1.76.09-.33-.37-.74L136,184l-.26-1.31.15-.67-.19-.69.36-1.5-.09-.65.13-.71-.07-.66.07-.69,0-.48-.33-.93.32-.85,0-.42-.1-.58-.3-1,.31-.73-.11-.6v-.8l.1-.51-.34-.81.34-.77-.09-.36-.19-1,.22-.61-.27-.75.38-.83,0-.44-.13-.84.24-.76,0-.32-.34-.74.18-2.62L136,159l-.19-.69.26-.76-.06-.34-.33-.82.14-1.17.19-.55v-.54l-.13-1.41.14-.7-.22-2.17.15-.48-.35-.68.22-.86-.11-.6.08-1.68.26-.6-.17-1.31.13-.69-.08-.64.06-.74-.13-1.42.12-.53-.36-.75.28-.82-.28-1.44.28-.71-.1-.65.24-.79v-.35l-.31-.75.32-2.26-.05-.57-.16-.83.21-.77,0-1.14-.22-.84.17-.65-.27-.79.29-.65-.2-.57-.12-.94.21-.57-.29-.74.39-.83-.08-1ZM21.37,113.14l.55,0,.64-.09,1-.21.71.32.52-.16,1,0,.37.06-.44-.22-.41-.56-.73-.31-.51-.76-.35-.34-.47.36-1,1.13ZM22.12,318l-.37.42.4.08.85-.24.75.29.47-.13-.07-.26-.58-.54-.26-1-.08.09-.38.78ZM133,239.23l-.26,58.38c0,6.7-5.64,12.33-12.77,12.82l-66.16,4.46q-.51,0-1,0a14.17,14.17,0,0,1-9.28-3.4,12.41,12.41,0,0,1-4.45-9.4l-1.15-61.41c-.06-6.89,5.63-12.6,13-13l67.64-1.42a14.1,14.1,0,0,1,10.17,3.49A12.39,12.39,0,0,1,133,239.23Zm-7.8-5.83a8.9,8.9,0,0,0-5.94-2.21l-.54,0L51,232.62a8.24,8.24,0,0,0-8,8l1.15,61.41a7.65,7.65,0,0,0,2.75,5.8A9,9,0,0,0,53.4,310l66.15-4.46a8.31,8.31,0,0,0,8-7.94l.26-58.37A7.64,7.64,0,0,0,125.15,233.4ZM26.1,153l.36-.81-.07-.51,0-.7-.12-.85.21-.59-.21-.57.15-1.58v-.56l-.14-.81.14-.69-.12-.62,0-.94.11-.63v-.46l-.24-.74.15-1.73.13-.6v-.42l-.33-.9.26-.67L26.1,137l.24-.95,0-.5-.12-.85.38-1.07.32-.55.39-1.13.17-.92.6-.65.34-.67.62-.56.31-.37.4-.95.92-.37.49-.47.75-.54.76-.19,1.25-.79.8-.19.61-.26,1-.3.85-.11.88,0,.78.18h.54l.83-.13.95,0,.62.13,1.29-.06.87-.17h.74l.8,0,.82,0,.69.19.74-.11.75.2.68-.09.7.09.76-.16.73.1.83-.2.78.25.64-.11.75.08.75-.12.79.08.8,0,.74.15,2.3-.22.72.24,1.38-.18,1.5.23.66-.13.86,0,.77,0,.63.1.85-.24L68,125l1.31-.12,2.21.17.79-.11.81.11h.52l.79-.26.9.1,1.45-.07,1,.07.65.15h.5l.88-.25,1,.28.45.07.75-.25.8.13.69-.15,1.68.12,1.46.2h.58l1.65-.29.79.19.61,0,.88-.12.82.25,1.38,0,1.31-.09.94-.2.81.24.5,0,.92-.19.85.22h.62l1.39-.15,1,0,.74.17.76,0,.73.17.68,0,.65.06.84-.2h.9l.74.22.44,0,.83-.29,1.22.15.61.22.73.1.59.15h1l1.27.9.85.17.57.52.87.26.57.83.37.37.64.46.62.61,1,1.23.45,1.44.4.62.23,1,0,.51.31.78.11.86-.17.81,0,.47.2.8-.2.68.17.62-.14,1.39.15.87-.3.77v.5l0,.54.37.88-.33.76.13.48.12.79,0,.92-.11.63,0,.62.13,1.51-.28.65.1.55,0,.77-.06.61.18.8-.23.74.14,1.33-.12.81,0,.61-.1.76v.59l0,.55.12.64.09.95-.18.79-.07.63-.11.64,0,.49.17.73.11.82-.21,2.05.15.84-.24.59.22.57-.24,2.28,0,.71-.14.7v.42l.36.94-.32.67.31.7-.41.87.07,1.76.17.81-.12.75.1.8-.25.67.07.44.1,1.7-.23.75,0,.32.33.69-.06,1.06-.13.81-.15.55,0,1.24V189l.15.7.11,1-.32.63.12.45v.83l.07.85-.28.72.16,2.78-.16.56.15.54.15.9-.15.71.11.78-.26.74,0,.58-.1.95-.62,1.26v.81l-.59.84-1.44,1.81-.4.4-.4.77-.82.51-.58.52-.77.57-.77.22-.73.53-.91.07-.81.35-3.3.55-.45-.1-1.48-.15-.59-.09-.7.15-1.12-.06-.47-.13-.71.21-1.64-.27h-.67l-1.39-.09-.84.29-1-.26-.59-.09-.7,0-.64,0-.8.24-1.67-.18-1.74-.07-.52-.17-1.48.22-.69-.17-.75.18-.91-.19-.55-.05-.71.13-1.86-.06-.66-.18-.59-.05-1.61.05-.64-.14-.7.14-.91.05-.7-.17L77,211l-1,.08-.66-.26-.58.14-1,0-1.26-.23-.83.31-.91-.32h-.46l-.79.2-1.78-.09-1.37-.24-.8.11-.69-.2-.74.2-.85-.21-.72,0-.8-.14-.55,0-.88.22-.79-.22-1.55.27-.8-.28-2.11.12H54.2l-.75-.08-.9.06-.65-.26-.59.14-.91.1-.85-.19-2.06-.13-.83.16-.73-.16-.72.17-1.83-.17-.6-.15-1.5.06-.61-.12-.81.28-1-.25-.61,0-1.65,0-.79-.23-1-.1-.64-.49-.67-.11-1-.35-1.27-.9-1.89-1.68-.35-.51-.46-.43-.67-.72-.32-.73-.46-.71-.32-.8-.22-.86.06-.76-.09-.4-.47-.91.21-.85-.17-.77.3-.77,0-.37-.2-.82,0-.8.16-1.33-.09-.76.14-.66-.11-.61v-.7l-.14-.81.3-1.42,0-.44-.28-.77.09-.82-.08-.79.21-.72,0-.58.07-1.26-.27-.76.18-.91,0-.55-.06-.71v-.69l.05-.71,0-.64-.09-.7.06-.94.1-.47-.18-.69.14-.77-.1-.75.18-.57-.24-.6.09-.8-.12-.68.07-.78,0-.81.21-.64,0-.43-.18-.75V167l0-.65.08-1,.17-.6,0-.53-.11-2-.18-.72v-1l.2-.59-.1-.42-.12-.9.1-.92.24-1.34,0-.52-.22-1.45.12-.6Zm5.31,13.89-.13.75v.46l.26.83-.21.74.33,1.44-.28.77.19,2v.75l-.06.65.09.86-.25.59.16.51.13.88-.18.81-.08,1.85.19.78-.14.68.2.65-.14,1.75-.14.53.1,1.38-.09.51.32.75-.26.93,0,.51.2,1.41-.09.7.15.84-.27.66.13.49.12.83-.21,2.23V197l0,.73-.09.64.11.51.22.76.05.5.91,1.88.14.47.2.2.78.34.42.57.64.27.49.55.34.12.74.06.71.13.73.21.56.07.79-.05.72.15.68-.09.76,0,.85-.1,1.52.31h.53l.82-.24.86.1.84-.05.76.22.65,0,1.39.11.81-.23.94.18.62.06.68-.05.84,0,.77.07H55l.76-.06,1,.07.55.12.75-.15.81.15.79-.07.64.19.67-.21.84.1.75-.09.86.09.94,0,.57.18.57-.05.77-.13.85,0h.72l1,.09.66.18.6.05,2.13-.05.78-.14,1.13.08.52.17.51-.09.93-.09.86.1,1.54.28.6,0,1.56-.16.66.13.87-.25.84.35.5-.05,1.73-.11.66.22.65-.19,1.66.18h.64l.85-.11.75.15.69-.09,1,.06.68.12.55,0,.79-.19,1.78.18.66.14H97l.94-.28.72.28.7-.26.95.24.55,0,.82-.14,1,.17.65.17.66,0,.58,0,.89-.19.83.18.75-.06.77.15.41,0,.78-.39.79.13,1.3-.51.49-.07.32-.25.61-.56.45-.3,1.86-2.55.11-.31,0-.65.13-.8.15-.5,0-1.13-.17-.84v-.69l0-.76,0-.79.2-.62-.11-.69.22-.71-.09-.62.1-.64-.18-.71.12-.68-.22-.8.28-.73-.11-.58.08-.7-.12-.69.09-.75-.06-.76.17-.69-.22-2.15.25-.68-.19-1.26.26-1.4-.13-.61,0-.77,0-.77.1-.57-.26-.81.36-.82-.12-1.2.19-2.06-.11-.74.12-.78v-.43l-.29-.75.12-.87-.07-1.34.09-.94.15-.59v-.42l-.26-.85.31-.93.06-.36-.26-.71.15-.75-.16-.63.05-.85.31-2.11v-.51l-.31-1.57.22-.75,0-.54-.14-.85.28-.78,0-1.26L115.9,151l-.21-.91.25-.78,0-.42-.21-.88.25-.81v-.5l-.16-1.45v-.83l.19-.7,0-.7.18-.68,0-.62.07-.58-.22-.81v-.87l.24-.68,0-.35-.31-.77.11-1.12.12-.46-.15-.85-.48-.63,0-.86-.09-.26-.52-.42-.25-.52-.63-.32-.43-.71-.27-.24-1.76-.66-.8-.16-1-.38-.62.08-1.48-.15-.76.16-.87,0-.79-.17-.54,0-.84.18L103,130l-.68.16-1.49-.12-.89.14-.82-.27h-.57l-.61,0-.9.34-.8-.3-.56.14-.83.11-.94,0-.68-.1-.69,0-1.6.13-.7-.26-.62.1-.81,0-.67-.06-.83.17-.78-.21-1.44.14-.84-.11-2.13-.12-.63,0-.69.11-1,.09-.83-.17-1.39-.16-.56.05-.68.15-1,.11-2.2-.19-.87.14-.66-.23-.63.22-2.41-.21-.76,0-.75-.12h-.5l-1,.32-.72-.3-.75.3-.91-.38-1.94.08-.85.17-.79-.11-.84.09-.73-.23-.52.07-1.76.1-.79-.21-.42,0-.74.31-1,0-.84-.11-.71-.16-1.36,0h-.69l-.75.15-1,.1-.69-.3-.65.12h-.75l-.88.07-.77-.26-3,.16-.64-.15-.61.15-.9.14-.14,0-.7,0-1.47.17-.5.1-.58.43-.8.44-.45.17-.34.56-.69.5-.39.35-.8,1.33.08.72-.44.78-.11.39,0,.51v.58l.29.74L31.5,139l0,1.49-.21.61.27,1.34-.16.64.22.68-.19.9,0,.46.17.77,0,.69,0,1-.17.6,0,.51.11,1.51-.14.58.17.63.08.87-.16.64.1.47.12,1-.25.6.16.64v.78l-.21,1.2.36.77-.33.9,0,.36.25.73-.05,1.7-.22,1.24.14.74-.18.63.22.68-.21.8Zm7,204.83a2.32,2.32,0,0,0-2.29,2.5l.69,14a2.5,2.5,0,0,0,2.58,2.4h.13a2.31,2.31,0,0,0,2.29-2.49l-.69-14A2.51,2.51,0,0,0,38.45,371.72Zm.1,21.4a2.5,2.5,0,1,0,2.45,2.5A2.42,2.42,0,0,0,38.55,393.12Zm54.34-39.24-.21-.75-.76-1.4-.55-.68-1.39-1-.93-.34-.74-.13-.82-.35-.92.11-.74-.06-.74.1-1.4-.15H83l-.76-.07-1.4,0-.74-.17-.74,0-.77-.18-.85.08L77,349l-.81,0-.67.06h-1l-.79.45-.6.2-1.62,1.08-.76,1.37-.53.79-.11,1,0,.77.13.88.67,2.39.7.58.4.65.75.57.16.1-1.42,2.43-.37.85-.15.48-.46.51-.33.74-.36.6-.67-1.15-.17-.56-.31-.74-.43-.66-.19-.55L67,359.9l-.2-.72,0,0,.57-.39,1.29-1.11.84-1.66,0-.76.27-.79-.29-.9,0-.6L69,351.81l-.56-.65-.39-.73-.66-.53-.5-.64-.78-.5-.93-.33-.63-.3-1-.24-1.6-.07-.64-.13-1.68-.06-.69.05-.68-.09H57.6l-.63-.1-1.64-.11-.72.05-.74-.07-.73.07-.74-.08-.74.1-1,0-.8.44-.62.24-.88.67-.5.49-1,1.38-.34.61-.27.89,0,.95.1.84.33.92.37.74,1,1.29.67.61.78.54.65.37.56.22.54.81.31.63L52.84,362l.55.63.29.44.38.69.35.54.28.59.5.65.24.53.88,1.21.93,1.84.54.65.21.5.42.73.41.55.2.53.87,1.35.27.57.37.62.31.64.43.65.29.64.25.45,0,.37-.06.63,0,.75.12.66-.08.62,0,.78.11.6-.11.65.15,1.35-.14.75.17.65-.11.43-.67.07-.72.43-.74.22-.72.52-.62.65L58,388l-.46,1.42-.09,1,.08.77.17.8L58.77,394l.5.7.72.64.85.41.52.36.9.37,1.7.15.59.21,1.75.11.75.17.79.11,1.51.11.69.13,1.57.09.8.13,1.5.16.69.15.85.08.85.16.89-.08,1.56-.46.83-.43,1.23-1,.77-.93.13-.79.4-.75-.11-.91.06-.76-.35-1.43-.25-.78-.57-.84-.56-.54-.45-.68-.81-.5L78.2,387l-.66-.23.07-1.3-.1-.66.08-.71-.12-.6.21-.7-.2-.83v-.44l.21-.78-.16-.8,0-1.15.26-.93.35-.34.89-1.41,1.72-3,.37-.52.37-.65.82-1.12.29-.64.5-.48.37-.72.76-1.15.35-.69.31-.49.48-.56.41-.58.34-.78.26-.49.53-.53.37-.73.78-1.15.54-.93,1.3-.44,1.29-1,.66-.76,1-1.53.16-1,.05-.77,0-.72ZM119,348.2l0,.32.32.84-.27.71.19.54-.08,1.8L119,353v.58l0,.65.23,1.47v1.4l0,.9-.24,1.31,0,.48.19.75.06,1.58-.17.68.08,1.27.13.87-.25.63.15.54-.06,1-.11.49.14.68-.14.78,0,.59v.64l.13.58.15,1-.25.66.14.62-.22,1.27.36.88-.33.71.18.57.09.86-.15.71.06.68-.12.64.15.72-.17.84-.12,1.12.36.76-.34,1.47.21.77-.24.76.07.48.23.88-.23.76.13,1.31,0,.67.11.86-.28.79,0,1.17.08.76-.08.61.22.75-.18.94-.09,1.21.14,2.18-.12.73,0,.6,0,.63.24.77-.13.84,0,.68-.08,1-.34.58,0,.71-.86,1.67-.31.43-.21.71-.43.88L116,410l-.28.63-.64.57-.53.67-1.56.84-1.84,1.1-.66.58-1.84.67-.83-.09-.75.27-.7.07-.93.22h-1l-.47-.19h-.55l-.85,0-.67-.16-.67.12-.88-.06h-.78l-.75-.17-2.2.09-1.4-.23-.71.15-1-.06L93,415l-.7.11-2.3-.23-1.44.18-1-.07-.62-.16-1.42,0-1.36-.16-.93.32-.72-.35-.67.26-1-.28-.54,0-.72.11-.83,0-.72,0-.79,0-.78,0-.72-.09-.84.05-.84-.25-.52-.09-.76.13-.9-.13-.66,0-2.15,0h-.82L65.16,414h-.6l-.7.08-.86.18-.83-.15-.82,0-.72-.23L60,414l-.75-.06-.76.06-.79-.06-1.58,0-.8-.2-.59-.05-.6,0-.79.18H52.27l-.57-.22-.72.25-.87-.26-1.54.15-.85-.3-.51-.05-.8.12-.71-.13-.85.19-.73-.25-.75.2-.74-.23-.85.25-.92-.47-.41-.08-1,.13-.71-.43-.67,0-1-.35-.84-.44-1-.78-.76-.34-.76-.5-.47-.65-.36-.34-.94-.52-.24-.95L31,407l-.68-.69-.14-.72-.52-.56-.29-1.48-.34-.78-.19-.88.13-.65-.21-.64.1-.86v-.52l-.17-.81v-.75l.1-.88.12-.51-.37-2.17.22-.54-.32-.65.31-1,0-.41-.18-.7,0-1.41-.16-.77.14-.79,0-1.23-.1-.71,0-1.46L28.45,383l.1-.71,0-.52-.16-.74,0-.92.09-.62,0-.56-.07-.54-.33-.91.29-.89,0-.43-.24-1.31L28,374l.11-.69-.1-.66.11-1.34-.15-.68-.08-.7,0-.92.14-.57-.16-.69V367l.1-.59-.17-.67.24-1.43-.19-.64.2-1.51-.09-.67v-.51l-.27-.68-.05-1,.19-.67-.07-.63.09-.64-.14-.61-.18-1.6.26-1.33-.1-.68.11-1.39-.05-.53-.24-.84,0-.71-.11-.73.13-1.36-.15-.72,0-.79.13-1.3-.15-.74.09-.71-.12-.68,0-.94.25-.69-.09-.85.47-.74,0-.46.12-1,.46-.72.25-.75.54-.67.31-.52.36-.8.64-.62,1-1.32.86-.36L35,330.24l.9-.37h.87l1.21-.38.9-.55.92.17.75-.27.79.14.85-.27L43,329l.55-.06,1,0,.63.23.66-.14.93.15.65.05h.74l.8.1,1.53.07.56.09.75-.14.82.13.81,0,.68.2.72-.11.78.16.75-.05.61.14.79-.26.81.24.71-.11,1.56.32.48,0,.79-.28,1.16.15.52.16.61-.09,1.11.06.45.15.67-.2.85.13.79-.06.68.18.7-.14,1.57.25.89,0,.47.11.8-.24.91.28.52,0,.78-.13.89.1.89,0,.53.15.64-.1,1.82.12.45.13.83-.27.76.33.62-.13.87-.05,1.48.27.8-.05.75.21,1.44-.06.65.1.8-.19.85.22.74,0,.73.18.53,0,.8-.14,1.09.07.56.16.68-.07.79.12,1.48-.08,1.52.25.63,0,1.86.08.46.15.72-.19.88.18h.75l.76.08.68.14.75-.07,1,.2.62.24,1.68.35.6.33.8.31.53.47.7.22.91.74.31.42.6.34.75.59.46.56.59.87.18.46.61.59.16.86.34.63.17.49.62.75,0,.91.18.47.24.9.1.81-.12,1-.15.5,0,.39.32,1Zm-5-2.42.15-.69,0-.42-.28-.74-.16-.88v-.48l-.33-.59-.18-.55-.3-.44-.54-.63-.71-1.05L109.72,338l-.31-.31-.67-.1-.7-.41-1.92-.53-.67.09-1-.06-.63-.11-.64,0-.81.1-.78-.12-.8,0-.65-.17-.67.13-1.08-.11-.51-.16-.53.09-.91.08-1.76-.18-.52-.14-.78.14-.81-.28H92l-.61,0-.87.26-.83-.28-1.31.09-1,0-.88-.15-.56-.17-.47,0-1,.24-.91-.38-.4,0-.89.25-.73-.28-.61.16-1.83-.14-.63-.16-.62,0-.7-.07-1.49.16-2.48-.11-1.44-.3-.51,0-.8.14h-.75l-1-.05L68.1,335H66.73l-.9.08-.68-.26-.61.12-1-.1-.56-.13-.74.11-.81-.17-1.34,0-.66.1-1,.08-.71-.26-.68.1-1.35-.26-.92.29-.73-.34-.64.16-.89,0-.75-.17-.74,0-.69-.14-.76.11-.87-.19-1.24-.17-.81.3L45,333.86l-.82.16-.79-.26-.56.06L42,334l-.75-.19-1.9.34-.74.3-.8,0-.54.21-.5.25-.63.48-.45.26-.39.58-.71.49-.43.41-.36.44-.58,1.11-.27.76-.27.51L32.43,341l.1.42h.36l-.44,1.8.12,1.36-.14.61.17.6,0,.79.06.79-.14.7.23,2-.17,1.3.2.79,0,.78-.1.58.17.63-.11,2.16.27,1.42,0,.91-.13.56.11,1.3-.08,1.24.41.87-.33.68.31.59-.26,1v.45l.16.76.17,2.82-.05.67.1.79-.23.83-.05.44.18.68-.09.84.1,2,.08.64,0,.77-.12,2.84,0,.59.11.58.26.85-.11.8.08.77-.2.68.08.57,0,.7.12.7,0,.74.13,1.49-.18.76v.52l.06.52.25.87,0,.91-.19.5.31.65-.24.84.26,1.43-.28.83,0,.42.18.74-.09.67.25.78-.22.69.26.68-.19.67.31.69-.22.85.05.24.54.67.06.67.42.44.78,1.19.35.63.29.35,1.34.87.41.43.37.2.93.13.63.6.43.12.6.08.86-.06.65.2.7-.19.92.18.57,0,.72-.11,1.12.05.5.16.68-.14.87.14.6,0,.75-.12.85,0,1,.14.57.15,2.35-.21.59.25.72-.27,1,.34.49,0,.76-.13,1.51.13.81-.1.83.17,1.37.06.77-.05,2.25.11h.83l.74.14h.59l.8-.1.85.07.76.13.68,0,.56,0,1-.24.91.31.52,0,2.35-.2.74.14.73-.05,1.44.18.74-.11.75,0,1.06.06.52.14.64-.12,1,.05.57.12.74-.12L87,410l.71-.14,1.59.27.68,0,.64,0,.74-.21,1.18,0,.58.18.69,0,.7.12.59-.09,1.78-.08,1.44.33.75-.06,1.49.18h.61l.78-.17h.87l.8-.05,1.37.17.54-.14.81-.13.75-.05.51-.1.71-.36.52-.15,1.26-.86.43-.15.4-.56.67-.28.2-.33.34-.71.47-.48.3-.67.33-.45.12-.39.09-.83.18-.52,0-.46-.1-.83.29-.76v-1.15l-.24-1.39,0-1,.3-.68v-1l-.38-.91.31-.76-.19-.64.17-.65-.28-.72.24-.81-.08-.48-.07-1,.21-.59-.18-.59.12-.86,0-.65,0-.69.08-.77v-1.39l.08-.57-.18-.69.1-.8-.06-.77.17-.63-.15-.66.15-.75-.1-.7.12-.56-.32-.74.23-.79-.15-.66.28-1.51v-.4l-.34-.74.12-1.17.13-.45-.12-.65,0-.87.17-.52-.24-.62.11-.82-.1-.76.15-.63-.18-.66.21-1.52,0-.74.11-.53-.3-.75.27-.9v-.45l-.18-.74.07-.81v-.79l.16-.6-.14-.68v-.7l.06-1,.1-.38-.32-.79.32-.74-.16-.55-.09-.83.22-1.42-.08-.76.18-.71-.13-1.35.08-.6-.24-.77.2-.83Zm-3,4.32a35.71,35.71,0,0,0-.37-5.24,7.06,7.06,0,0,0-3.63-5,13.79,13.79,0,0,0-6.33-1.31,2.34,2.34,0,0,0-2.49,2.34,2.5,2.5,0,0,0,2.41,2.66h.25a8.36,8.36,0,0,1,3.79.71c.82.47,1.12,1.12,1.21,2.69.2,3.53.31,7.26.31,11.42a2.43,2.43,0,0,0,2.51,2.44h0a2.41,2.41,0,0,0,2.49-2.45c0-2.33,0-4.65-.11-6.89C111,351,111,350.56,111,350.1Z" style="fill: rgb(43, 57, 144);"></path></g></g></svg>