<?xml version="1.0" encoding="UTF-8"?><svg xmlns="http://www.w3.org/2000/svg" xmlns:xlink="http://www.w3.org/1999/xlink" height="224.8" preserveAspectRatio="xMidYMid meet" version="1.0" viewBox="48.4 99.8 328.4 224.8" width="328.4" zoomAndPan="magnify"><g id="change1_1"><path d="M358.517,204.433c-0.703-0.063-1.402-0.153-2.084-0.254c-31.37-4.639-98.691-36.632-61.722-77.746 c15.516-17.256,42.808-12.787,64.233-11.817c5.25,0.238,11.094,0.883,14.55,4.985c3.328,3.95,3.276,9.735,2.977,14.939 c-1.136,19.792-3.203,39.521-6.192,59.095c-0.505,3.305-1.197,6.905-3.708,9.014 C364.381,204.488,361.412,204.693,358.517,204.433z" fill="#f4abc5"/></g><g id="change1_2"><path d="M66.683,204.433c0.703-0.063,1.402-0.153,2.084-0.254c31.37-4.639,98.691-36.632,61.722-77.746 c-15.517-17.256-42.808-12.787-64.233-11.817c-5.25,0.238-11.094,0.883-14.55,4.985c-3.328,3.95-3.276,9.735-2.977,14.939 c1.136,19.792,3.203,39.521,6.192,59.095c0.505,3.305,1.197,6.905,3.708,9.014C60.819,204.488,63.788,204.693,66.683,204.433z" fill="#f4abc5"/></g><g id="change2_1"><path d="M358.517,204.433c-0.703-0.063-1.401-0.153-2.085-0.254c-3.171-0.469-6.72-1.231-10.48-2.239 c-7.519,3.755-15.111,7.351-22.374,11.624c-19.439,11.437-36.185,26.642-48.685,45.486 c-8.424,12.701-14.853,26.643-19.707,41.071c-1.997,5.938-4.619,18.799-4.619,18.799s-0.84,0.317-2.367,0.794 c8.16-0.11,18.89-7.368,25.67-10.967c18.161-9.64,35.009-21.843,49.457-36.501c18.466-18.737,33.242-41.734,41.319-66.855 c0.208-0.646,0.36-1.26,0.506-1.871C363.178,204.507,360.833,204.641,358.517,204.433z" fill="#dc789b"/></g><g id="change2_2"><path d="M165.149,277.482c-7.835-19.988-20.37-37.738-37.222-51.112c-13.884-11.02-29.854-18.349-46.093-25.147 c-4.73,1.382-9.175,2.381-13.067,2.956c-0.681,0.101-1.379,0.191-2.083,0.254c-2.317,0.207-4.661,0.074-6.636-0.913 c0.146,0.61,0.3,1.225,0.508,1.871c8.074,25.12,22.851,48.118,41.318,66.855c14.447,14.658,31.294,26.861,49.457,36.501 c7.189,3.816,18.825,11.757,27.125,10.914c0,0-5.012-14.11-7.152-22.711C169.659,290.342,167.635,283.824,165.149,277.482z" fill="#dc789b"/></g><g id="change3_1"><path d="M294.711,126.433c12.474-13.872,32.554-13.702,51.082-12.599c-9.573-1.589-19.218-2.833-28.813-4.349 c-43.436-6.863-87.506-9.687-131.463-8.463c-21.977,0.612-43.927,2.236-65.755,4.873c-15.135,1.829-29.542,4.814-44.103,8.171 c19.514-1.249,41.508-2.448,54.829,12.367c32.384,36.014-15.255,65.028-48.656,74.79c16.24,6.798,32.209,14.127,46.093,25.147 c16.852,13.375,29.387,31.125,37.222,51.112c2.486,6.342,4.51,12.859,6.154,19.468c2.14,8.601,7.152,22.711,7.152,22.711 s16.966,4.906,37.637,4.793c20.242-0.11,34.476-5.534,34.476-5.534s2.622-12.861,4.619-18.799 c4.853-14.428,11.282-28.37,19.707-41.071c12.499-18.845,29.246-34.05,48.685-45.486c7.263-4.273,14.855-7.869,22.375-11.624 C312.509,192.966,261.477,163.392,294.711,126.433z" fill="#f29eb9"/></g><g id="change4_1"><path d="M294.711,126.433c12.474-13.872,32.554-13.702,51.082-12.599c-9.573-1.589-19.218-2.833-28.813-4.349 c-18.726-2.959-37.57-5.162-56.471-6.619c1.951,2.076,3.665,4.386,5.027,7.006c7.904,15.209,1.343,32.142-0.12,48.006 c-0.42,4.554-0.375,9.161,0.54,13.655c0.983,4.826,2.866,9.391,5.299,13.66c4.148,7.277,10.163,14.506,10.613,23.226 c0.22,4.271-1.282,8.506-3.845,11.894c-2.605,3.443-6.061,6.054-9.282,8.88c-7.41,6.501-11.496,15.305-15.645,24.055 c-2.85,6.011-5.619,12.069-8.524,18.053c-2.99,6.16-6.318,12.252-10.758,17.502c-4.009,4.739-9.28,8.838-15.559,9.834 c-3.382,0.536-6.897,0.333-10.115-0.893c-3.322-1.266-6.206-3.397-8.598-6.01c-4.992-5.456-8.009-12.405-10.78-19.167 c-3.596-8.772-7.778-17.178-12.702-25.288c-5.321-8.766-11.246-17.143-17.169-25.507c-5.07-7.159-11.08-14.547-11.791-23.644 c-0.711-9.099,4.318-17.04,6.492-25.569c2.595-10.177,2.375-20.875,0.96-31.215c-1.659-12.123-6.822-28.107,0.519-38.814 c-11.795,0.832-23.57,1.948-35.31,3.366c-15.135,1.829-29.542,4.813-44.103,8.171c19.514-1.249,41.508-2.448,54.829,12.367 c32.383,36.014-15.255,65.028-48.657,74.79c16.24,6.798,32.209,14.127,46.093,25.147c16.852,13.375,29.387,31.125,37.222,51.112 c2.486,6.341,4.51,12.859,6.154,19.468c2.14,8.601,7.152,22.711,7.152,22.711s16.966,4.906,37.637,4.793 c20.242-0.11,34.476-5.534,34.476-5.534s2.622-12.861,4.619-18.799c4.853-14.428,11.282-28.37,19.707-41.071 c12.499-18.845,29.246-34.05,48.685-45.487c7.263-4.273,14.855-7.869,22.375-11.624 C312.509,192.966,261.477,163.392,294.711,126.433z" fill="#ea93b0"/></g><g id="change5_2"><path d="M257.267,126.862c0.015-0.325-0.011-0.674-0.088-1.052c-0.598-2.938-3.212-4.073,1.265-5.045 c2.587-0.561,5.419-0.195,8.043-0.166c6.016,0.069,12.013,0.641,18.017,0.98c10.38,0.586,20.757,1.263,31.113,2.197 c3.209,0.29,6.541,0.643,9.292,2.321c4.431,2.703,4.323,7.686,3.695,12.249c-0.946,6.868-1.892,13.736-2.838,20.605 c-0.167,1.217-0.342,2.458-0.883,3.561c-1.914,3.9-7.185,4.374-11.528,4.313c-9.155-0.129-18.31-0.258-27.466-0.387 c-6.756-0.095-13.526-0.184-20.255-0.85c-1.895-0.188-7.077,0.078-8.592-1.182c-3.156-2.624,0.541-2.959,1.263-5.258 c0.379-1.206-0.754-2.329-1.823-3.004c-1.068-0.675-2.336-1.464-2.41-2.725c-0.134-2.3,3.742-3.239,3.664-5.541 c-0.077-2.243-3.895-3.189-3.521-5.402c0.314-1.861,3.368-2.199,3.686-4.06c0.366-2.144-3.23-3.163-3.286-5.336 C254.544,130.538,257.151,129.415,257.267,126.862z" fill="#f7c2d3"/></g><g id="change6_2"><path d="M324.907,126.097c-2.751-1.678-6.082-2.032-9.29-2.321c-1.88-0.17-3.762-0.292-5.642-0.446 c-0.862,7.631-1.724,15.263-2.587,22.895c-0.569,5.03-1.123,10.229,0.365,15.068c0.615,2.001,1.696,3.909,3.086,5.497 c0.839,0.012,1.676,0.024,2.515,0.035c4.343,0.061,9.613-0.413,11.527-4.313c0.542-1.103,0.716-2.344,0.884-3.561 c0.946-6.868,1.892-13.737,2.838-20.605C329.231,133.784,329.338,128.801,324.907,126.097z" fill="#fad7e0"/></g><g id="change5_1"><path d="M167.933,126.862c-0.015-0.325,0.011-0.674,0.088-1.052c0.598-2.938,3.212-4.073-1.265-5.045 c-2.587-0.561-5.419-0.195-8.043-0.166c-6.016,0.069-12.013,0.641-18.017,0.98c-10.38,0.586-20.757,1.263-31.113,2.197 c-3.209,0.29-6.541,0.643-9.292,2.321c-4.431,2.703-4.323,7.686-3.695,12.249c0.946,6.868,1.892,13.736,2.838,20.605 c0.168,1.217,0.342,2.458,0.884,3.561c1.914,3.9,7.185,4.374,11.528,4.313c9.155-0.129,18.31-0.258,27.466-0.387 c6.756-0.095,13.526-0.184,20.255-0.85c1.895-0.188,7.077,0.078,8.592-1.182c3.156-2.624-0.541-2.959-1.263-5.258 c-0.379-1.206,0.754-2.329,1.823-3.004c1.068-0.675,2.336-1.464,2.41-2.725c0.134-2.3-3.742-3.239-3.663-5.541 c0.077-2.243,3.895-3.189,3.521-5.402c-0.314-1.861-3.368-2.199-3.686-4.06c-0.366-2.144,3.23-3.163,3.286-5.336 C170.656,130.538,168.049,129.415,167.933,126.862z" fill="#f7c2d3"/></g><g id="change6_1"><path d="M100.293,126.097c-4.432,2.703-4.324,7.687-3.695,12.249c0.946,6.868,1.892,13.736,2.838,20.605 c0.167,1.217,0.343,2.458,0.884,3.561c1.914,3.9,7.184,4.374,11.528,4.313c0.837-0.012,1.676-0.024,2.513-0.035 c1.391-1.588,2.471-3.496,3.087-5.497c1.487-4.838,0.933-10.038,0.365-15.068c-0.864-7.632-1.726-15.263-2.588-22.895 c-1.88,0.154-3.762,0.276-5.64,0.446C106.375,124.066,103.044,124.42,100.293,126.097z" fill="#fad7e0"/></g><g><g id="change7_1"><path d="M257.049,181.934c-1.155-3.499-3.884-6.508-7.361-7.729c-1.99-0.699-4.146-0.812-6.248-0.641 c-0.772,0.063-1.542,0.17-2.304,0.316c0.383-0.549,0.76-1.1,1.13-1.648c0.783-1.161,1.582-2.357,1.885-3.724 c0.398-1.797-0.115-3.68-0.896-5.347c-1.564-3.336-4.29-6.171-7.691-7.59c-3.401-1.419-7.462-1.327-10.661,0.501 c-1.831,1.046-3.329,2.601-4.576,4.302c-0.357,0.486-0.694,0.988-1.01,1.503c-0.176-0.726-0.36-1.447-0.547-2.161 c-0.355-1.354-0.726-2.745-1.553-3.874c-1.087-1.485-2.84-2.344-4.607-2.857c-3.538-1.028-7.467-0.852-10.778,0.765 c-3.311,1.617-5.923,4.728-6.662,8.338c-0.423,2.066-0.244,4.217,0.21,6.277c0.061,0.278,0.129,0.554,0.201,0.829 c-0.881-0.758-1.808-1.473-2.895-1.867c-1.73-0.627-3.664-0.362-5.418,0.198c-3.51,1.119-6.673,3.457-8.52,6.646 c-1.846,3.189-2.279,7.228-0.88,10.636c0.801,1.951,2.149,3.637,3.675,5.093c0.436,0.417,0.89,0.816,1.36,1.196 c-0.743,0.08-1.482,0.17-2.213,0.263c-1.389,0.177-2.815,0.365-4.043,1.039c-1.613,0.886-2.691,2.513-3.428,4.199 c-1.477,3.376-1.81,7.295-0.634,10.786c1.176,3.492,3.924,6.484,7.408,7.684c1.994,0.686,4.151,0.787,6.252,0.603 c0.772-0.068,1.541-0.179,2.302-0.33c-0.38,0.551-0.753,1.104-1.12,1.655c-0.776,1.165-1.568,2.367-1.862,3.735 c-0.387,1.799,0.137,3.679,0.928,5.341c1.584,3.327,4.328,6.145,7.737,7.543c3.409,1.398,7.469,1.281,10.658-0.566 c1.825-1.057,3.313-2.622,4.549-4.33c0.354-0.489,0.688-0.993,1.001-1.51c0.18,0.725,0.369,1.445,0.56,2.157 c0.363,1.352,0.742,2.74,1.576,3.865c1.096,1.479,2.854,2.327,4.624,2.83c3.544,1.007,7.473,0.807,10.773-0.831 c3.301-1.638,5.894-4.764,6.612-8.379c0.41-2.069,0.218-4.219-0.248-6.276c-0.015-0.067-0.034-0.134-0.05-0.201 c0.74,0.611,1.525,1.161,2.42,1.491c1.727,0.637,3.662,0.384,5.419-0.164c3.517-1.098,6.694-3.417,8.56-6.594 c1.866-3.178,2.323-7.214,0.945-10.631c-0.789-1.956-2.127-3.65-3.644-5.116c-0.434-0.419-0.885-0.822-1.353-1.204 c0.743-0.076,1.482-0.161,2.215-0.25c1.39-0.168,2.818-0.348,4.049-1.014c1.619-0.876,2.706-2.497,3.454-4.178 C257.847,189.35,258.204,185.433,257.049,181.934z" fill="#dcd1cf"/></g><g id="change8_1"><path d="M233.479,208.631c-2.595,3.336-6.283,5.613-9.888,7.817c-1.827,1.117-3.696,2.252-5.785,2.723 c-2.32,0.524-4.756,0.19-7.05-0.437c-6.407-1.752-12.187-5.892-15.653-11.559c-8.531-13.95-0.886-32.669,15.257-35.966 c7.114-1.453,14.748,0.478,20.522,4.821c5.106,3.842,7.846,12.549,8.222,18.721C239.377,199.222,236.123,205.231,233.479,208.631 z" fill="#f086a7"/></g></g></svg>